<?xml version="1.0" encoding="UTF-8" standalone="no"?>
<svg
   xmlns:dc="http://purl.org/dc/elements/1.1/"
   xmlns:cc="http://creativecommons.org/ns#"
   xmlns:rdf="http://www.w3.org/1999/02/22-rdf-syntax-ns#"
   xmlns:svg="http://www.w3.org/2000/svg"
   xmlns="http://www.w3.org/2000/svg"
   xml:space="preserve"
   enable-background="new 0 0 1200 1200"
   viewBox="0 0 1100 196.22401"
   height="196.22401"
   width="1100"
   y="0px"
   x="0px"
   id="Layer_1"
   version="1.1"><metadata
   id="metadata11"><rdf:RDF><cc:Work
       rdf:about=""><dc:format>image/svg+xml</dc:format><dc:type
         rdf:resource="http://purl.org/dc/dcmitype/StillImage" /><dc:title></dc:title></cc:Work></rdf:RDF></metadata><defs
   id="defs9" />
<g
   transform="translate(-50,-497.89199)"
   id="g4">
	<path
   style="fill:#3c3c3b"
   id="path2"
   d="M 1019.151,670.6 H 973.1 l -0.177,-46.187 c 0.961,0 1.761,-2.075 1.761,-2.075 0.644,-0.163 0.644,-0.642 0.644,-0.642 -0.644,-1.277 -2.405,-0.956 -2.405,-0.956 v -1.761 c -1.754,-2.553 -16.935,-2.553 -16.935,-2.553 v -4.157 c 0,0 0,0 0.477,0 0.479,0 0.64,-1.594 0.64,-1.594 -0.796,-2.398 -6.549,-2.082 -6.549,-2.082 v -2.077 c 1.754,-1.438 -1.282,-2.398 -1.282,-2.398 l -0.323,-0.798 -1.757,-0.798 v -0.958 l -1.438,-0.319 0.163,-1.119 -1.442,-0.162 -0.158,-0.961 -1.598,-0.795 c -12.942,-14.384 -29.885,-13.746 -29.885,-13.746 -20.933,0.478 -30.201,13.903 -30.201,13.903 l -1.601,0.161 -0.159,0.956 -1.122,0.32 -0.319,0.959 -1.115,0.321 v 1.44 l -1.921,0.317 v 1.121 c -3.676,0.317 -1.598,1.919 -1.598,1.919 v 2.075 c -1.597,0 -5.114,0.798 -5.114,0.798 -2.717,0.642 -1.117,3.038 -1.117,3.038 v 3.992 c -10.07,-0.156 -16.462,1.921 -16.462,1.921 v 2.076 c -3.678,0.8 -0.639,1.917 -0.639,1.917 -1.119,0.642 0.477,2.717 0.477,2.717 V 642.3 c -0.178,-0.154 -0.271,-0.251 -0.318,-0.251 -0.046,0 -0.217,0.015 -0.15,0.19 0.072,0.177 0.182,0.247 0.205,0.277 0.019,0.027 0.189,0.141 0.189,0.198 0,0.061 -0.211,0.209 -0.23,0.218 -0.02,0.01 0.126,0.184 0.126,0.184 0,0 0.067,0.15 -0.107,0.182 -0.167,0.023 -0.139,0.059 -0.226,0.023 -0.088,-0.04 -0.088,-0.025 -0.203,-0.139 -0.125,-0.104 -0.125,-0.104 -0.125,-0.104 0,0 -0.396,-0.145 -0.066,-0.207 0.338,-0.068 0.303,-0.048 0.338,-0.068 0.03,-0.011 0.03,-0.152 -0.01,-0.177 -0.037,-0.032 -0.206,-0.082 -0.206,-0.082 l -0.051,-0.07 c 0,0 0.246,-0.095 0.133,-0.186 -0.108,-0.08 -0.167,-0.175 -0.217,-0.175 -0.049,0 -0.184,-0.048 -0.212,0.032 -0.031,0.076 -0.193,0.194 -0.378,0.19 -0.186,0 -0.178,0.044 -0.219,-0.017 -0.035,-0.053 -0.313,-0.042 0.012,-0.11 0.322,-0.068 0.35,-0.082 0.35,-0.082 0,0 0.023,0.015 0.026,-0.017 0.008,-0.032 0.108,-0.141 0.17,-0.141 0.06,0.002 0.335,0.04 0.335,0.021 0,-0.015 0.051,-0.163 -0.095,-0.177 -0.137,-0.027 -0.173,0.021 -0.289,-0.085 -0.117,-0.103 -0.152,-0.171 -0.147,-0.238 0.006,-0.057 0.051,-0.213 0.051,-0.224 0,-0.019 -0.217,-0.296 -0.217,-0.296 0,0 -0.054,-0.249 -0.202,-0.209 -0.139,0.042 -0.222,-0.116 -0.149,0.072 0.077,0.19 0.139,0.108 0.139,0.241 0,0.144 0.005,0.097 -0.108,0.211 -0.109,0.114 -0.385,0.065 -0.385,0.053 0,-0.027 -0.082,-0.104 -0.099,-0.104 -0.02,0 -0.38,-0.093 -0.045,-0.11 0.333,-0.017 0.325,-0.141 0.325,-0.141 l -0.068,-0.051 c 0,0 -0.093,-0.004 -0.113,-0.013 -0.022,-0.011 0.062,-0.137 0.062,-0.15 0.005,-0.008 0.301,-0.281 0.288,-0.3 -0.023,-0.023 0.252,-0.302 0.272,-0.211 0.017,0.093 0.081,0.268 0.093,0.283 0.012,0.013 0.032,-0.015 0.164,0.027 0.126,0.046 0.115,-0.036 0.126,0.046 0.023,0.078 -0.048,0.218 0.04,0.245 0.089,0.015 0.06,-0.04 0.089,0.015 0.036,0.053 0.061,0.025 0.011,0.163 -0.039,0.135 -0.049,0.112 -0.011,0.16 0.036,0.059 0.103,0.139 0.051,0.184 -0.057,0.044 0.25,-0.032 0.272,-0.044 0.017,-0.023 0.102,-0.175 0.078,-0.215 -0.022,-0.036 0.051,-0.198 0.029,-0.209 -0.016,-0.015 -0.055,-0.218 -0.055,-0.218 0,0 0.15,-0.152 0.301,-0.141 0.15,0 0.219,-0.197 0.128,-0.197 -0.08,0 -0.105,-0.099 -0.304,-0.013 -0.192,0.089 -0.432,-0.057 -0.206,-0.095 0.228,-0.036 0.7,-0.287 0.313,-0.169 -0.379,0.118 -0.483,0.133 -0.528,0.133 -0.042,0 -0.025,-0.013 -0.067,-0.175 -0.039,-0.167 -0.33,-0.171 -0.352,-0.171 -0.016,0 0.062,0.274 -0.129,0.118 -0.194,-0.158 -0.213,-0.19 -0.213,-0.19 0,0 -0.008,-0.279 -0.11,-0.135 -0.097,0.141 -0.256,0.338 -0.289,0.268 -0.038,-0.067 -0.151,-0.241 -0.191,-0.179 -0.038,0.057 -0.145,0.047 -0.223,0.038 -0.077,-0.002 -0.446,-0.091 -0.318,-0.112 0.118,-0.015 0.212,-0.032 0.321,-0.038 0.107,-0.004 0.185,-0.127 0.292,-0.021 0.107,0.112 0.16,0.207 0.23,0.116 0.063,-0.089 0.099,-0.089 0.113,-0.146 0.015,-0.055 0.115,-0.139 0.074,-0.15 -0.037,-0.008 -0.119,-0.093 -0.288,-0.032 -0.172,0.055 -0.282,-0.025 -0.282,-0.025 0,0 0.058,-0.068 -0.013,-0.025 -0.073,0.042 -0.285,0.019 -0.09,-0.038 0.193,-0.053 0.603,0.017 0.553,-0.082 -0.058,-0.095 -0.218,-0.173 -0.218,-0.173 0,0 0.294,-0.207 0.049,-0.118 -0.245,0.099 -0.455,0.16 -0.47,0.173 -0.011,0.013 -0.108,0.03 -0.108,-0.065 0,-0.089 0.085,-0.173 0,-0.089 -0.092,0.08 -0.281,0.256 -0.281,0.256 0,0.004 0,0 0,0.027 0,0.093 -0.012,0.179 -0.067,0.188 -0.055,0.004 -0.042,-0.095 -0.1,0.004 -0.051,0.101 0.134,0.027 -0.068,0.127 -0.203,0.099 -0.353,0.144 -0.257,0.013 0.096,-0.12 0.335,-0.238 0.212,-0.281 -0.122,-0.046 -0.145,-0.135 -0.227,-0.097 -0.085,0.04 0.094,-0.156 -0.101,-0.099 -0.205,0.059 -0.251,0.061 -0.291,0.123 -0.039,0.063 0.049,0.122 0.006,0.144 -0.038,0.019 -0.094,0.019 -0.108,-0.057 -0.014,-0.08 0.058,-0.35 0.023,-0.35 -0.037,0 0.039,-0.12 -0.128,-0.059 -0.173,0.051 0.174,-0.264 -0.092,-0.082 -0.269,0.181 -0.269,0.127 -0.253,-0.057 0.014,-0.175 0.035,-0.222 0.014,-0.175 -0.017,0.042 -0.042,-0.055 -0.193,-0.099 -0.147,-0.04 -0.077,0.262 -0.206,-0.08 -0.132,-0.346 -0.067,-0.437 -0.134,-0.416 -0.064,0.023 -0.304,0.277 -0.34,0.245 -0.037,-0.032 -0.079,-0.192 -0.079,-0.192 0,0 -0.133,-0.15 -0.223,-0.125 -0.093,0.026 -0.118,0.026 -0.118,0.026 0,0 -0.161,0.025 -0.311,0.048 0.04,-0.038 0.072,-0.103 0.107,-0.19 0.102,-0.306 -0.153,-0.317 -0.317,-0.293 0.06,-0.374 0.499,-0.5 0.223,-0.465 -0.287,0.036 0.544,-0.378 0.101,-0.165 -0.443,0.205 -0.814,0.089 -0.874,0.226 -0.06,0.137 0.027,0.23 -0.116,0.304 -0.146,0.074 -0.074,0.108 -0.231,0.099 -0.16,-0.004 -0.177,-0.196 -0.171,-0.27 0.006,-0.08 -0.329,-0.16 -0.329,-0.16 0,0 -0.122,-0.04 -0.064,-0.133 0.061,-0.086 0.377,-0.152 0.455,-0.086 0.075,0.065 0.387,-0.015 0.387,-0.015 l 0.063,-0.008 c 0,0 0.291,0.038 0.22,-0.114 -0.068,-0.148 0.016,-0.346 -0.129,-0.234 -0.145,0.11 -0.308,0.123 -0.564,0.184 -0.255,0.061 -0.145,0.061 -0.302,0.059 -0.155,0 -0.131,-0.152 -0.088,-0.156 0.039,-0.013 0.686,-0.146 0.264,-0.112 -0.42,0.034 -0.554,-0.042 -0.554,-0.063 0,-0.017 0.108,-0.063 0.139,-0.084 0.023,-0.017 0.301,-0.152 0.26,-0.186 -0.048,-0.036 0.131,-0.048 -0.165,-0.192 -0.285,-0.144 -0.095,-0.359 -0.12,-0.359 -0.015,0 0.498,-0.279 0.516,-0.072 0.017,0.205 0.147,0.209 0.379,0.41 0.232,0.192 0.336,0.177 0.371,0.247 0.024,0.065 0.617,-0.097 0.339,-0.114 -0.279,-0.008 -0.224,-0.238 -0.263,-0.256 -0.043,-0.013 0.011,-0.091 -0.19,-0.04 -0.207,0.04 -0.365,-0.211 -0.365,-0.211 0,0 -0.063,-0.315 0.08,-0.317 0.151,0 0.134,0.002 0.244,0.074 0.109,0.066 -0.008,-0.141 0.282,0.068 0.301,0.211 0.155,0.108 0.301,0.211 0.141,0.104 0.558,0.021 0.558,0 0,-0.023 -0.029,-0.207 -0.066,-0.211 -0.035,0 -0.143,-0.494 -0.214,-0.431 -0.077,0.065 -0.378,0.247 -0.387,0.215 -0.018,-0.027 -0.149,0.122 -0.097,-0.158 0.057,-0.285 0.241,-0.367 0.072,-0.312 -0.169,0.057 0.088,-0.108 -0.192,-0.013 -0.288,0.101 -0.391,0.129 -0.412,0.135 -0.025,0.013 0.248,-0.331 -0.048,-0.241 -0.292,0.097 -0.256,0.049 -0.334,0.146 -0.078,0.091 -0.098,0.125 -0.154,0.169 -0.058,0.049 -0.175,-0.103 -0.215,-0.152 -0.035,-0.049 -0.133,-0.095 -0.177,-0.004 -0.048,0.078 0.003,0.129 0.023,0.161 0.018,0.029 0.06,0.053 0.06,0.135 -0.005,0.08 0.024,0.051 -0.109,0.139 -0.137,0.093 -0.12,0.03 -0.149,0.129 -0.032,0.095 -0.011,0.122 -0.011,0.171 0,0.051 -0.318,0.086 -0.391,0.154 -0.07,0.065 -0.198,-0.285 -0.246,-0.298 -0.038,-0.013 -0.256,-0.053 -0.343,-0.021 -0.087,0.034 -0.097,-0.167 -0.097,-0.167 0,0 0.265,-0.021 0.246,-0.104 -0.023,-0.072 -0.035,-0.184 -0.035,-0.184 0,0 0.193,-0.038 0.242,0.044 0.043,0.078 0.284,0.207 0.291,0.165 0.006,-0.038 0.174,-0.317 0.174,-0.317 0,0 0.236,-0.009 0.153,-0.156 -0.083,-0.144 -0.04,-0.217 -0.016,-0.222 0.018,-0.006 0.321,-0.118 0.119,-0.184 -0.204,-0.063 -0.393,-0.346 -0.393,-0.331 0,0.021 -0.129,-0.167 -0.112,0.184 0.011,0.344 0.027,0.367 0.042,0.386 0.013,0.023 0.295,0.044 0.08,0.127 -0.216,0.089 0.055,0.026 -0.216,0.089 -0.263,0.063 -0.272,0.099 -0.392,-0.059 -0.125,-0.152 -0.013,-0.481 -0.174,-0.367 -0.168,0.112 -0.209,0.173 -0.156,0.291 0.047,0.129 0.027,0.034 0.047,0.129 0.02,0.099 -0.247,0.127 -0.247,0.105 0,-0.027 0.03,-0.105 -0.03,-0.135 -0.059,-0.038 -0.089,-0.165 -0.217,-0.152 -0.12,0.004 -0.184,-0.027 -0.256,0.004 -0.072,0.025 -0.111,-0.008 -0.206,-0.065 -0.099,-0.057 -0.392,0.163 -0.453,0.213 -0.05,0.021 -0.106,0.099 -0.15,0.161 0.029,-0.049 0.039,-0.112 -0.078,-0.091 -0.158,0.029 -0.211,0.038 -0.226,0.038 0,0.004 -0.014,0.017 -0.131,0.084 -0.182,0.11 -0.19,0.198 -0.225,0.203 -0.033,0.008 -0.205,0.027 -0.222,0.008 -0.022,-0.017 -0.022,-0.027 -0.047,-0.224 -0.013,-0.068 -0.016,-0.123 -0.019,-0.165 -0.024,0.006 -0.075,0 -0.142,-0.015 -0.151,-0.038 -0.212,0 -0.23,0.013 0.006,-0.013 0.03,-0.051 0.045,-0.137 0.073,-0.289 0.136,-0.175 0.191,-0.228 0.06,-0.053 0.017,-0.317 -0.079,-0.277 -0.1,0.03 -0.022,-0.182 0.017,-0.182 0.034,0 0.413,-0.184 0.195,-0.133 -0.223,0.049 0.011,-0.11 -0.268,0.023 -0.279,0.133 -0.036,0.264 -0.234,0.182 -0.201,-0.082 -0.168,0.086 -0.201,-0.082 -0.039,-0.171 -0.022,-0.178 -0.151,-0.173 -0.118,0 -0.111,0.063 -0.184,0 -0.073,-0.059 0.263,-0.105 0.263,-0.097 0.008,0.017 0.338,0.122 0.338,0.103 0,-0.019 0.086,-0.139 -0.12,-0.179 -0.207,-0.036 -0.307,-0.067 -0.297,-0.118 0.003,-0.044 0.161,-0.357 -0.039,-0.283 -0.204,0.078 -0.234,0.144 -0.267,0.127 -0.036,-0.021 -0.038,-0.197 -0.185,-0.068 -0.15,0.127 -0.323,0.139 -0.323,0.108 0,-0.036 -0.139,-0.232 -0.09,-0.224 0.051,0.015 0.294,0.065 0.294,0.015 0,-0.032 -0.004,-0.099 -0.004,-0.133 0.01,0.006 0.021,0.019 0.047,0.027 0.08,0.044 0.08,0.044 0.08,0.044 0,0 0.241,-0.061 0.117,-0.169 -0.123,-0.114 0.071,-0.133 0.071,-0.133 0,0 0.242,-0.19 -0.054,-0.194 -0.289,0 -0.19,0.123 -0.183,0.146 0.01,0.025 -0.139,0.129 -0.222,0.158 -0.081,0.026 -0.137,-0.11 -0.137,-0.135 0,-0.032 0.145,-0.188 0.139,-0.207 -0.005,-0.019 0.15,-0.245 0.055,-0.211 -0.082,0.044 -0.489,-0.564 -0.517,-0.467 -0.024,0.103 0.098,0.158 0.072,0.302 -0.016,0.139 -0.202,-0.047 -0.212,0.279 -0.017,0.319 -0.045,0.154 -0.2,0.253 -0.151,0.099 0,0.086 -0.151,0.22 -0.151,0.131 -0.093,-0.078 -0.28,0.196 -0.184,0.264 -0.126,0.22 -0.184,0.264 -0.056,0.042 -0.072,0.042 -0.115,0.084 -0.047,0.051 -0.066,-0.004 -0.226,0.112 -0.164,0.114 -0.167,0.211 -0.164,0.036 0.011,-0.175 -0.025,-0.344 -0.052,-0.365 -0.023,-0.019 -0.153,-0.089 -0.168,-0.108 -0.017,-0.023 -0.247,-0.262 0.049,-0.163 0.289,0.089 0.448,0.11 0.381,0.023 -0.067,-0.08 -0.02,-0.144 -0.101,-0.15 -0.075,-0.004 -0.056,-0.046 -0.039,-0.051 0.017,-0.013 0.169,-0.353 0.014,-0.293 -0.144,0.061 -0.155,0.114 -0.197,0.205 -0.048,0.089 -0.112,0.112 -0.139,0.112 -0.034,0 0.048,-0.023 -0.091,-0.144 -0.133,-0.122 -0.032,-0.144 -0.133,-0.084 -0.105,0.055 -0.251,0.091 -0.317,0.04 -0.062,-0.053 -0.115,-0.144 -0.115,-0.156 0,-0.015 0.091,-0.135 0.157,-0.097 0.062,0.047 0.06,0.066 0.135,0.04 0.078,-0.025 0.025,-0.105 0.173,-0.065 0.139,0.03 0.156,0.116 0.156,0.135 0,0.019 0.198,-0.004 0.198,-0.082 0,-0.076 -0.273,-0.127 0.049,-0.101 0.327,0.025 0.242,0.004 0.327,0.025 0.085,0.027 0.15,-0.051 0.122,0.063 -0.029,0.114 -0.095,0.192 -0.134,0.213 -0.038,0.025 -0.178,0 0.014,0.076 0.198,0.074 0.165,0.078 0.198,0.074 0.021,-0.007 0.455,-0.197 0.455,-0.197 0,0 0.131,-0.135 0.131,-0.167 0,-0.03 0,-0.196 0,-0.196 0,0 0.195,-0.027 0.045,-0.279 -0.144,-0.26 -0.481,-0.505 -0.144,-0.431 0.339,0.076 0.723,-0.207 0.466,-0.194 -0.262,0.006 -0.184,-0.038 -0.262,0.006 -0.075,0.038 -0.145,-0.264 -0.152,-0.276 -0.01,-0.013 -0.322,-0.319 -0.44,-0.169 -0.122,0.156 0.04,0.323 0.04,0.34 0,0.017 -0.362,0.099 -0.378,0.144 -0.012,0.036 0.25,-0.196 0.327,0.042 0.073,0.247 0.26,0.053 0.096,0.262 -0.168,0.211 -0.57,0.158 -0.425,0.251 0.142,0.091 0.316,0.065 0.207,0.118 -0.099,0.051 -0.48,0.118 -0.48,0.118 l -0.031,-0.011 c 0,0 -0.058,-0.065 -0.149,-0.065 -0.082,0 -0.123,-0.027 -0.123,-0.042 0,-0.004 0,0.006 -0.008,0.011 0.011,-0.025 0.029,-0.044 0.042,-0.078 0.175,-0.298 0.588,-0.129 0.432,-0.184 -0.152,-0.057 -0.189,-0.272 -0.193,-0.293 -0.004,-0.021 -0.239,-0.418 -0.259,-0.342 -0.03,0.07 0.006,0.093 -0.068,0.038 -0.072,-0.051 0.03,-0.126 -0.053,-0.192 -0.081,-0.063 -0.156,-0.129 -0.185,-0.091 -0.036,0.044 -0.128,-0.234 -0.18,-0.095 -0.056,0.139 -0.034,0.251 -0.034,0.264 0,0.013 -0.011,0.169 -0.011,0.169 0,0 -0.145,0.104 -0.163,0.12 -0.024,0.015 -0.287,-0.086 -0.253,0.025 0.024,0.108 0.136,0.087 0.159,0.137 0.021,0.053 0.044,-0.177 0.062,0.112 0.014,0.296 0.01,0.281 0.007,0.327 -0.01,0.051 -0.237,0.099 -0.237,0.099 0,0 -0.11,-0.099 -0.14,-0.103 -0.034,-0.004 -0.156,-0.188 -0.176,-0.203 -0.019,-0.011 -0.067,-0.283 -0.254,-0.169 -0.178,0.118 -0.099,0.179 -0.123,0.215 -0.019,0.027 -0.229,-0.127 -0.177,-0.226 0.05,-0.095 0.179,-0.148 0.222,-0.264 0.043,-0.127 -0.107,-0.188 0.097,-0.262 0.204,-0.065 0.096,-0.135 0.35,-0.108 0.25,0.027 0.161,0.063 0.049,-0.131 -0.108,-0.179 -0.229,-0.078 -0.245,-0.074 -0.023,0.008 -0.057,0.066 -0.066,0.078 -0.026,0.021 -0.019,-0.384 -0.091,-0.188 -0.068,0.194 -0.129,0.249 -0.135,0.372 -0.002,0.12 0.033,0.072 -0.023,0.125 -0.053,0.053 -0.127,0.03 -0.156,0.15 -0.034,0.129 -0.025,0.167 -0.025,0.167 0,0 -0.324,-0.044 -0.352,-0.12 -0.033,-0.08 -0.073,-0.127 -0.13,0.009 -0.06,0.131 -0.605,-0.26 -0.624,-0.27 -0.017,-0.013 0.154,-0.416 -0.095,-0.291 -0.247,0.12 -0.122,0.222 -0.122,0.222 0,0 0.099,0.116 0.253,0.268 0.161,0.154 0.417,0.279 0.417,0.279 0.151,0.247 0.237,0.19 0.248,0.26 0.013,0.067 0.08,0.224 0.08,0.289 0,0.057 0.11,0 0,0.057 -0.106,0.055 -0.078,0.095 -0.106,0.055 -0.022,-0.038 0.114,-0.156 -0.137,-0.353 -0.254,-0.19 -0.467,-0.213 -0.617,-0.308 -0.145,-0.087 -0.098,-0.213 -0.079,-0.243 0.021,-0.03 0.236,-0.15 -0.021,-0.116 -0.266,0.03 -0.405,-0.036 -0.34,0.036 0.06,0.072 -0.04,0.209 -0.04,0.209 0,0 -0.223,-0.125 -0.215,-0.171 0.006,-0.051 -0.082,-0.321 -0.192,-0.258 -0.112,0.066 -0.591,-0.105 -0.188,0.169 0.395,0.268 0.478,0.207 0.378,0.319 -0.097,0.116 -0.056,0.101 -0.097,0.116 -0.048,0.013 0.03,-0.034 -0.048,0.013 -0.077,0.046 -0.404,0.072 -0.33,0.135 0.073,0.061 0.442,0.006 0.224,0.097 -0.209,0.089 -0.261,0.076 -0.29,0.063 0.029,-0.023 0.035,-0.038 -0.008,-0.021 -0.016,-0.065 -0.024,-0.294 -0.123,-0.046 -0.025,0.053 -0.019,0.08 -0.007,0.097 -0.243,0.068 -0.497,-0.029 -0.261,0.106 0.254,0.152 0.254,0.156 0.495,0.108 0.228,-0.051 0.183,-0.095 0.228,-0.051 0.051,0.036 0.219,-0.084 0.219,-0.084 0,0 0.232,-0.108 0.266,-0.082 0.034,0.023 -0.307,0.154 -0.334,0.171 -0.023,0.023 0.172,0.093 0.237,0.127 0.059,0.025 -0.143,-0.188 0.059,0.025 0.206,0.217 -0.772,0.323 0.206,0.217 0.507,-0.059 0.644,-0.118 0.669,-0.139 0,0.008 0.013,0.017 0.03,0.04 0.133,0.12 0.455,0.363 0.455,0.363 -0.206,-0.004 -0.412,-0.262 -0.417,-0.114 -0.011,0.144 -0.151,-0.065 -0.302,0.002 -0.148,0.065 -0.233,-0.004 -0.148,0.065 0.089,0.072 -0.008,0.01 0.153,0.095 0.163,0.091 0.096,0.262 0.096,0.262 -0.068,0.078 -0.448,0.139 -0.448,0.139 0,0 0.078,-0.342 -0.049,-0.266 -0.133,0.076 -0.258,-0.095 -0.531,0.07 -0.267,0.156 -0.285,0.156 -0.202,-0.002 0.091,-0.163 0.26,-0.441 0.26,-0.441 0,0 -0.169,-0.133 -0.37,-0.038 -0.201,0.101 -0.397,0.059 -0.225,-0.076 0.168,-0.139 -0.445,0.04 -0.475,0.076 -0.032,0.023 -0.334,0.013 -0.446,-0.158 -0.116,-0.165 -0.169,0.019 -0.425,0.089 -0.254,0.07 -0.238,0.494 -0.486,0.129 -0.251,-0.372 -0.275,-0.154 -0.053,-0.378 0.224,-0.234 0.073,-0.399 0.073,-0.399 0,0 0.175,-0.253 0.253,-0.023 0.075,0.234 0.45,0.439 0.332,0.15 -0.112,-0.293 -0.225,-0.635 -0.498,-0.456 -0.276,0.175 -0.628,0.446 -0.654,0.49 -0.007,0.013 -0.015,0.008 -0.017,0 0.002,0.017 0.01,0.048 0.017,0.095 0.026,0.234 -0.181,0.289 -0.387,0.032 -0.207,-0.255 -0.135,-0.549 -0.346,-0.454 -0.206,0.097 -0.401,0.238 -0.401,0.238 0,0 0.34,0.291 0.365,0.308 0.025,0.015 0.338,0.158 0.482,0.22 0.15,0.065 0.379,0.131 0.379,0.131 0,0 0.031,0.338 0.031,0.35 0,0.013 -0.024,-0.076 -0.181,-0.11 -0.167,-0.03 0.396,-0.011 -0.325,-0.215 -0.718,-0.198 -0.841,-0.266 -0.841,-0.266 0,0 -0.251,-0.76 -0.374,-0.361 -0.118,0.401 0.133,0.422 0.016,0.549 -0.127,0.129 -0.518,0.23 -0.56,0.053 -0.042,-0.171 0.268,-0.213 0.018,-0.291 -0.244,-0.087 -0.244,-0.087 -0.244,-0.087 l -0.326,-0.08 c 0,0 0.356,-0.224 0.337,-0.243 -0.021,-0.021 -0.123,-0.12 -0.123,-0.12 0,0 -0.711,-0.287 -0.186,-0.171 0.525,0.116 0.483,0.07 0.57,0.137 0.09,0.068 0.252,0.068 0.307,0.068 0.052,0 0.433,-0.146 0.433,-0.146 0,0 0.035,-0.15 0.035,-0.169 0,-0.021 -0.187,-0.621 -0.261,-0.614 -0.072,0.004 0.006,-0.587 -0.072,0.004 -0.076,0.589 0.189,0.526 -0.115,0.621 -0.309,0.095 -0.349,-0.207 -0.396,-0.216 -0.044,-0.013 -0.549,-0.135 -0.549,-0.135 0,0 0.082,-0.152 0.108,-0.152 0.038,0 -0.318,-0.175 -0.318,-0.175 l 0.546,-0.304 c 0,0 -0.29,-0.34 -0.448,-0.133 -0.15,0.203 -0.539,0.146 -0.548,0.129 -0.004,-0.025 0.107,-0.315 -0.051,-0.291 -0.164,0.021 -0.279,0.011 -0.353,0.11 -0.081,0.101 -0.166,0.065 -0.064,0.171 0.103,0.108 0.179,0.135 0.113,0.163 -0.073,0.027 0.067,-0.021 -0.185,0.004 -0.253,0.023 -0.37,-0.032 -0.37,-0.059 0,-0.034 -0.15,-0.232 -0.215,-0.158 -0.058,0.078 -0.488,-0.091 -0.488,-0.091 0,0 -0.173,-0.057 -0.173,-0.108 0,-0.055 0.464,-0.344 0.045,-0.287 -0.416,0.053 -0.358,0.055 -0.375,0.086 -0.024,0.025 -0.365,0.008 -0.222,0.12 0.138,0.114 0.484,0.15 0.154,0.207 -0.319,0.053 -0.289,0.053 -0.319,0.053 -0.035,0 -0.418,-0.237 -0.456,-0.004 -0.03,0.237 -0.09,0.197 0.011,0.313 0.095,0.12 0.24,0.089 0.207,0.207 -0.027,0.116 -0.04,0.129 -0.127,0.247 -0.091,0.125 -0.036,0.044 -0.12,0.12 -0.088,0.076 -0.071,0.125 -0.071,0.125 0,0 -0.033,-0.226 -0.201,-0.287 -0.167,-0.061 -0.27,-0.061 -0.27,-0.061 0,0 0.126,-0.266 0.126,-0.308 0,-0.044 0.061,-0.405 -0.142,-0.146 -0.204,0.266 -0.115,0.26 -0.257,0.391 -0.136,0.137 -0.076,0.3 -0.059,0.323 0.023,0.023 0.101,-0.198 0.023,0.023 -0.079,0.228 -0.061,0.283 -0.151,0.182 -0.087,-0.089 -0.119,-0.156 -0.167,-0.163 -0.051,-0.004 -0.035,-0.16 -0.232,-0.025 -0.197,0.152 -0.139,0.059 -0.197,0.152 -0.059,0.087 -0.098,0.095 -0.098,0.095 l -0.092,-0.201 -0.115,-0.011 c 0,0 -0.11,-0.082 -0.058,-0.112 0.056,-0.027 0.356,-0.078 0.356,-0.078 0,0 0.369,0.042 0.135,-0.106 -0.241,-0.15 -0.146,-0.144 -0.281,-0.173 -0.132,-0.038 -0.139,-0.053 -0.206,-0.053 -0.063,0 -0.144,-0.004 -0.155,0.065 -0.011,0.057 0.061,0.2 -0.039,0.065 -0.107,-0.139 -0.149,-0.23 -0.149,-0.23 l -0.018,-0.15 -0.315,-0.042 -0.051,0.063 c 0,0 -0.015,0.061 -0.055,0.034 -0.033,-0.023 -0.057,-0.361 -0.121,-0.397 -0.062,-0.032 -0.291,-0.026 -0.317,-0.019 -0.03,0.006 -0.052,0.027 -0.225,-0.171 -0.174,-0.197 0.005,-0.241 -0.151,-0.253 -0.153,-0.011 -0.229,0.038 -0.229,0.038 0,0 -0.058,0.072 -0.072,0.133 -0.011,0.055 -0.141,0.144 -0.141,0.144 l -0.239,-0.31 c 0,0 -0.129,-0.029 -0.129,0.165 -0.005,0.188 0.137,0.179 0.141,0.194 0.01,0.021 0.338,0.118 0.338,0.15 0,0.038 -0.161,0.099 -0.054,0.249 0.109,0.158 0.2,0.148 0.229,0.232 0.027,0.08 -0.303,0.008 -0.032,0.139 0.273,0.133 0.121,0.051 0.273,0.133 0.148,0.08 0.204,-0.11 0.148,0.12 -0.051,0.232 -0.051,0.182 -0.072,0.253 -0.023,0.067 0.011,0.032 -0.012,0.101 -0.029,0.068 -0.216,0.156 -0.224,0.237 -0.005,0.087 -0.068,-0.061 -0.156,0.038 -0.094,0.091 -0.151,0.154 -0.151,0.154 0,0 0.095,-0.192 0.095,-0.205 0,-0.017 -0.043,-0.207 -0.078,-0.207 -0.039,0 -0.134,-0.009 -0.228,0.067 -0.101,0.068 -0.29,-0.154 -0.29,-0.154 0,0 0.122,-0.165 0.24,-0.146 0.118,0.019 0.569,0.177 0.381,-0.046 -0.187,-0.228 -0.132,-0.186 -0.28,-0.323 -0.152,-0.137 -0.168,-0.321 -0.19,-0.327 -0.018,-0.004 0.541,0.063 0.183,-0.091 -0.35,-0.154 -0.152,-0.296 -0.407,-0.275 -0.265,0.019 -0.3,-0.051 -0.3,-0.051 0,0 -0.01,0.093 0,0.148 0.003,0.051 0.073,0.237 0.044,0.245 -0.022,0.011 -0.441,-0.099 -0.441,-0.099 0,0 -0.139,-0.006 -0.018,-0.205 0.127,-0.19 0.16,-0.228 0.16,-0.228 0,0 0.254,-0.093 -0.164,-0.218 -0.421,-0.131 -0.505,-0.16 -0.505,-0.16 0,0 0.053,-0.076 -0.049,0 -0.099,0.078 -0.083,0.11 -0.01,0.165 0.07,0.059 0,0.025 0.111,0.091 0.116,0.061 0.116,0.017 0.137,0.082 0.019,0.068 0,0.106 -0.031,0.196 -0.035,0.078 -0.035,0.131 -0.035,0.131 l 0.118,0.213 c 0,0 -0.176,0.038 -0.326,0.055 -0.15,0.015 -0.182,-0.068 -0.244,-0.013 -0.067,0.051 -0.039,-0.116 -0.067,0.051 -0.027,0.163 -0.021,0.224 -0.045,0.224 -0.027,0 -0.437,-0.146 -0.332,-0.211 0.11,-0.063 0.232,-0.215 0.219,-0.232 -0.019,-0.019 -0.473,-0.205 -0.501,-0.158 -0.032,0.053 -0.372,-0.099 -0.403,-0.114 -0.026,-0.006 -0.39,-0.192 -0.413,-0.122 -0.025,0.061 -0.109,0.405 -0.109,0.405 0,0 0,0.032 0,0.103 0,0.078 -0.018,0.207 -0.018,0.207 0,0 -0.049,0.142 -0.16,0.049 -0.107,-0.093 -0.135,-0.097 -0.157,-0.159 -0.026,-0.07 0.017,-0.177 -0.1,-0.042 -0.118,0.125 -0.118,0.125 -0.118,0.125 0,0 0.16,0.192 -0.077,0.053 -0.241,-0.133 -0.225,-0.15 -0.225,-0.19 0,-0.042 -0.01,-0.236 -0.01,-0.236 0,0 -0.164,-0.025 0.039,-0.076 0.201,-0.04 0.192,0.008 0.206,-0.08 0.011,-0.086 -0.005,-0.169 -0.037,-0.171 0,0 0.037,0.078 -0.102,0.099 -0.139,0.023 -0.129,0.078 -0.139,0.023 -0.008,-0.055 -0.008,-0.01 -0.008,-0.137 0,-0.125 0,-0.226 0,-0.226 l -0.192,0.241 c 0.112,0.074 0.178,0.013 0.02,0.171 -0.231,0.217 -0.324,0.139 -0.324,0.173 0,0.027 0.02,0.017 0.017,0.154 -0.002,0.141 0.026,0.152 -0.098,0.226 -0.116,0.065 -0.113,0.021 -0.116,0.065 0,0.051 -0.035,0.213 -0.035,0.213 0,0 -0.184,0.23 -0.255,0.247 -0.079,0.017 -0.007,-0.403 -0.007,-0.435 0,-0.036 -0.267,-0.217 -0.183,0.044 0.083,0.264 -0.157,0.502 -0.157,0.502 l -0.257,-0.123 c 0,0 -0.005,0 -0.005,-0.114 0,-0.11 -0.4,0.061 0.055,-0.247 0.453,-0.302 0.536,-0.382 0.536,-0.382 0,0 0.168,0.059 0.054,-0.078 -0.043,-0.051 -0.064,-0.078 -0.08,-0.095 -0.013,0.015 -0.02,0.04 -0.043,0.068 -0.133,0.186 -0.415,0.279 -0.415,0.279 l -0.241,-0.266 c 0,0 0.408,-0.209 0.366,-0.283 -0.042,-0.07 -0.278,-0.287 -0.278,-0.287 0,0 -0.097,-0.085 -0.167,-0.133 0.017,0.019 0.04,0.059 0.061,0.116 0.105,0.272 0.535,0.201 -0.044,0.391 -0.228,0.076 -0.268,0.169 -0.256,0.234 -0.023,-0.038 -0.072,-0.091 -0.155,-0.158 -0.509,-0.46 0.464,-0.332 0.185,-0.462 -0.277,-0.125 -0.243,0.112 -0.243,0.112 l -0.354,0.027 0.085,-0.291 c 0,0 0.079,-0.222 -0.083,-0.123 -0.161,0.108 -0.207,0.334 -0.207,0.334 l -0.218,-0.063 -0.144,-0.232 c 0,0 -0.118,-0.2 -0.164,-0.2 -0.038,0 -0.439,-0.342 -0.439,-0.342 l -0.196,0.317 0.391,0.068 c 0,0 0.068,0.139 0.068,0.16 0,0.03 -0.369,0.173 -0.369,0.173 0,0 -0.118,-0.104 -0.285,-0.245 -0.173,-0.141 -0.328,-0.321 -0.328,-0.321 0,0 0.019,-0.161 -0.012,-0.167 -0.029,-0.006 -0.29,0.125 -0.335,0.144 0.012,-0.011 0.05,-0.038 0.119,-0.158 0.098,-0.165 0.115,-0.756 0.115,-0.756 0,0 -0.09,0.53 -0.231,0.667 -0.139,0.131 -0.064,0.095 -0.139,0.131 -0.075,0.038 -0.394,-0.099 -0.394,-0.099 0,0 0.034,-0.171 -0.042,0.011 -0.078,0.182 -0.153,0.355 -0.218,0.285 -0.067,-0.074 -0.168,-0.255 -0.168,-0.255 l -0.215,0.243 c 0,0 0.245,0.146 0.285,0.192 0.04,0.051 0.385,0.015 0.385,0.226 -0.005,0.213 0.101,0.543 -0.028,0.456 -0.128,-0.074 -0.158,-0.161 -0.193,-0.161 -0.029,0 0.023,-0.175 -0.008,-0.175 -0.034,0 -0.245,-0.082 -0.245,-0.082 l -0.257,-0.201 -0.247,-0.49 c 0,0 0.101,-0.777 -0.373,-0.454 -0.477,0.331 -0.12,0.112 0.037,0.391 0.158,0.279 -0.131,0.139 -0.131,0.139 0,0 -0.188,-0.334 -0.264,-0.125 -0.077,0.203 0.473,0.104 0.425,0.304 -0.045,0.198 -0.687,0.068 -0.068,0.291 0.62,0.226 0.734,0.34 0.68,0.393 -0.053,0.057 -0.11,0.095 -0.122,0.241 -0.012,0.139 0.076,0.105 0.091,0.154 0.011,0.044 -0.23,-0.139 -0.23,-0.139 0,0 0.027,-0.336 -0.083,-0.008 -0.107,0.323 -0.068,0.251 -0.107,0.323 -0.05,0.068 -0.206,-0.08 -0.206,-0.08 l -0.223,-0.072 c 0,0 -0.057,0.237 -0.057,0.281 0,0.051 0.247,0.16 0.395,0.26 0.147,0.091 -0.11,0.427 -0.11,0.427 0,0 1.705,0.464 -0.228,0.029 -1.932,-0.433 -0.93,-0.198 -0.991,-0.243 -0.063,-0.051 -0.315,-0.158 -0.331,-0.203 -0.017,-0.038 -0.067,-0.53 -0.067,-0.53 0,0 0.362,0.125 0.414,0.198 0.052,0.072 0.239,-0.332 0.314,-0.163 0.067,0.167 -0.014,-0.179 0.02,-0.11 0.027,0.067 0.391,0.543 0.234,0.074 -0.154,-0.471 -0.187,-0.503 -0.187,-0.503 l -0.097,0.253 -0.31,-0.336 -0.092,-0.055 c 0,0 0.694,-0.057 0.713,-0.023 0.017,0.044 0.207,-0.238 -0.048,-0.268 -0.258,-0.023 -0.275,-0.319 -0.275,-0.319 l -0.29,0.171 c 0,0 -0.363,0.53 -0.371,0.27 -0.008,-0.264 0.316,-0.523 0.221,-0.523 -0.097,0 -0.501,0.131 -0.514,0.169 -0.011,0.04 0.414,0.441 0.319,0.541 -0.099,0.086 0.308,0.137 -0.176,0.103 -0.483,-0.032 -0.502,-0.325 -0.555,-0.042 -0.061,0.287 -0.311,0.135 -0.311,0.135 0,0 -0.235,0.013 -0.281,0.013 -0.04,0 0.166,-0.315 0.166,-0.388 0,-0.074 -0.158,-0.15 -0.222,-0.16 -0.065,-0.013 -0.026,-0.427 0.01,-0.205 0.039,0.22 0.136,0.131 0.354,0.023 0.213,-0.099 -0.194,-0.473 -0.194,-0.473 l -0.363,0.182 c -0.004,0.032 -0.022,0.078 -0.05,0.163 -0.122,0.329 0.227,0.536 -0.078,0.293 -0.307,-0.243 -0.11,0.027 -0.196,-0.019 -0.085,-0.046 -0.476,-0.304 -0.436,-0.365 0.045,-0.063 -0.294,0.013 -0.294,0.042 0,0.032 -0.207,0.46 -0.214,-0.002 -0.008,-0.456 0.287,-0.959 -0.051,-0.49 -0.338,0.464 -0.487,0.378 -0.316,0.547 0.168,0.167 0.168,0.135 0.111,0.201 -0.05,0.076 0.378,0.243 0.378,0.243 0,0 0.042,-0.03 -0.097,0.137 -0.144,0.165 -0.126,0.279 0.016,0.433 0.14,0.156 0.14,0.156 0.14,0.156 0,0 0.241,0.304 0.127,-0.175 -0.113,-0.486 0.145,-0.414 0.145,-0.361 0,0.044 0.016,0 0.157,0.156 0.134,0.158 -0.278,0.15 0.149,0.266 0.422,0.112 0.87,-0.108 0.714,0.089 -0.151,0.198 -0.622,0.201 -0.543,0.298 0.068,0.093 0.271,0.163 0.271,0.163 l 0.09,-0.015 c -0.053,0.023 -0.083,0.063 -0.07,0.131 0.054,0.184 0.375,0.08 0.375,0.08 0,0 -0.026,-0.131 0.173,-0.015 0.196,0.125 0.203,0.011 0.196,0.171 0,0.16 0.269,0.378 -0.206,0.194 -0.462,-0.175 -0.531,-0.397 -0.57,-0.226 -0.043,0.175 0.247,0.105 0.297,0.19 0.051,0.074 -0.438,0.08 -0.195,0.241 0.246,0.165 0.608,-0.03 0.051,0.329 -0.558,0.35 -0.513,-0.116 -0.513,-0.116 0,0 0.09,-0.428 0.022,-0.217 -0.064,0.217 -0.022,0.279 -0.064,0.365 -0.046,0.091 -0.29,0.07 -0.29,0.103 0,0.032 0.031,0.156 0.031,0.184 0,0.017 -0.28,0.131 -0.28,-0.013 0,-0.125 -0.602,-0.234 -0.742,-0.241 0.082,-0.038 0.307,-0.22 0.307,-0.22 l 0.336,-0.008 c 0,0 0.413,0.22 0.234,-0.184 -0.177,-0.401 -0.245,-0.26 -0.245,-0.26 l -0.108,0.198 c 0,0 -0.256,-0.287 -0.234,-0.177 0.019,0.11 -0.022,0.26 -0.022,0.26 0,0 -0.186,0.006 -0.183,-0.148 0.002,-0.148 -0.128,-0.034 -0.029,-0.264 0.098,-0.23 0.139,-0.139 -0.072,-0.437 -0.208,-0.296 -0.279,-0.319 -0.253,-0.407 0.018,-0.087 0.1,-0.374 -0.004,-0.365 -0.112,0.006 -0.323,0.213 -0.285,0.296 0.044,0.076 0.185,0.076 0.192,0.3 0.01,0.22 0.137,0.15 0.08,0.287 -0.055,0.133 -0.278,-0.004 -0.278,-0.042 0,-0.042 -0.051,-0.182 -0.141,-0.196 -0.082,-0.002 -0.086,0.16 -0.086,0.16 0,0 0.483,0.173 0.109,0.344 -0.373,0.169 -0.462,0.089 -0.462,0.061 0.004,-0.036 0.065,-0.427 0.065,-0.427 0,0 -0.311,-0.726 -0.422,-0.509 -0.106,0.222 0.02,0.334 0.02,0.426 0,0.085 0.158,0.182 -0.042,0.361 -0.208,0.186 -0.27,-0.065 -0.291,-0.122 -0.021,-0.053 0.176,-0.821 -0.287,-0.581 -0.464,0.245 -0.812,-0.093 -0.812,-0.093 l 0.19,0.401 c 0,0 0.333,-0.059 0.423,0.116 0.096,0.16 0.099,0.125 0.096,0.23 0,0.099 0.457,0.144 0.457,0.144 0,0 0.379,0.118 0.331,0.211 -0.041,0.082 0.472,0.182 0.516,0.171 0.039,-0.015 -0.094,-0.378 0.213,-0.217 0.313,0.162 0.278,0.228 0.278,0.228 l -0.468,0.598 c 0,0 -0.117,-0.192 -0.117,-0.239 0,-0.051 -0.53,-0.125 -0.53,-0.125 0,0 -0.134,-0.479 -0.363,-0.198 -0.232,0.272 -0.783,0.198 -0.795,0.15 -0.009,-0.047 -0.272,-0.558 -0.326,-0.327 -0.056,0.23 -0.31,0.205 -0.056,0.355 0.257,0.154 0.79,0.129 0.745,0.215 -0.043,0.091 -0.545,0.247 -0.545,0.247 -0.029,0.135 -0.38,0.125 0.123,0.226 0.502,0.093 0.619,-0.044 0.535,0.184 -0.096,0.23 -0.157,0.19 -0.157,0.253 0,0.059 -0.105,-0.04 -0.105,-0.04 0,0 0.291,-0.467 0,-0.205 -0.288,0.257 -0.424,0.04 -0.412,0.16 0.006,0.12 -0.155,0.097 -0.062,0.097 0.101,0 0.376,0.125 0.193,0.184 -0.179,0.055 -0.179,0.125 -0.337,-0.019 -0.166,-0.144 -0.142,-0.201 -0.142,-0.201 l -0.379,-0.171 c 0,0 -0.214,-0.118 -0.018,0.218 0.198,0.334 0.268,0.638 0.006,0.386 -0.268,-0.247 -0.714,-0.26 -0.682,-0.226 0.029,0.032 0.402,0.579 0.074,0.201 -0.333,-0.384 -0.728,-1.315 -0.594,-0.657 0.022,0.12 0.041,0.201 0.064,0.285 -0.011,0.021 -0.023,0.047 -0.037,0.097 -0.097,0.391 -0.161,0.226 -0.097,0.391 0.061,0.156 -0.098,-0.091 -0.098,-0.091 0,0 -0.247,0 -0.179,0.15 0.059,0.15 0.467,0.12 0.282,0.272 -0.182,0.146 0.128,0.374 -0.236,0.163 -0.362,-0.207 -0.608,-0.036 -0.512,-0.346 0.099,-0.306 0.153,-0.391 0.019,-0.498 -0.054,-0.04 -0.107,-0.095 -0.156,-0.15 -0.02,0.025 -0.061,0.072 -0.157,0.137 -0.31,0.247 -0.746,0.104 -0.345,0.211 0.407,0.116 0.615,-0.137 0.591,0.125 -0.029,0.264 -0.115,0.338 -0.115,0.338 l -0.308,0.065 c 0,0 -0.129,0.12 -0.152,0.19 -0.019,0.076 0.035,0.008 0.107,0.127 0.073,0.12 -0.034,0.222 -0.037,0.452 0,0.186 -0.072,0.312 -0.099,0.365 -0.015,-0.065 -0.048,-0.165 -0.107,-0.317 -0.221,-0.621 -0.483,-0.897 -0.472,-0.629 0.005,0.266 0.052,0.342 0.005,0.266 -0.043,-0.078 -0.41,-0.595 -0.542,-0.319 -0.133,0.275 -0.145,0.108 -0.306,0.211 -0.156,0.099 -0.352,0.266 -0.352,0.266 l 0.2,-0.023 0.793,0.034 c 0,0 0.207,0.173 0.226,0.253 0.019,0.078 0.093,0.22 -0.197,0.27 -0.291,0.044 -0.491,-0.008 -0.531,-0.103 -0.044,-0.095 -0.195,-0.18 -0.195,-0.18 l -0.173,0.04 -0.167,-0.044 c 0,0 -0.368,-0.543 -0.498,-0.405 -0.128,0.131 -0.412,0.059 -0.412,0.059 0,0 -0.073,0.099 -0.073,0.127 0,0 0,-0.006 0,0.019 0,0.065 -0.198,0.272 -0.198,0.272 l -0.371,-0.224 c 0,0 -0.002,0.074 0.202,0.232 0.2,0.15 0.2,0.481 0.2,0.481 l 0.374,-0.283 c 0,0 0.139,0.19 0.19,0.19 0.049,0.002 0.114,-0.359 0.114,-0.359 l 0.399,0.338 -0.1,0.467 c 0,0 0.484,0.085 0.404,0.133 -0.073,0.046 -0.724,-0.019 -0.724,-0.019 0,0 -0.077,-0.167 -0.077,0 0,0.158 -0.249,0.564 -0.373,0.293 -0.132,-0.274 -0.225,-0.505 -0.225,-0.505 0,0 -0.203,0.156 -0.203,0.243 0,0.085 0.427,0.359 0.148,0.359 -0.282,0 -0.635,0.051 -0.635,-0.126 0.004,-0.18 -0.067,-0.061 -0.339,-0.239 -0.265,-0.179 -0.661,-0.315 -0.661,-0.315 0,0 0.066,0.065 0.082,0.122 0.02,0.07 0.138,0.291 0.138,0.291 0,0 -1.057,-0.673 -0.455,-0.16 0.59,0.515 0.59,0.515 0.59,0.515 h -0.413 l 0.164,0.154 c 0,0 -0.475,-0.057 -0.446,-0.057 0.034,0 0.557,0.243 0.557,0.243 l -0.172,0.19 0.092,0.194 c 0,0 0.415,-0.184 0.428,0.004 0.01,0.179 -0.118,0.158 -0.186,0.224 -0.062,0.078 -0.151,0.175 -0.107,0.209 0.044,0.034 0.353,0.089 0.353,0.089 0,0 0.111,-0.287 0.223,0.122 0.111,0.412 0.368,0.393 0.368,0.393 0,0 0.24,-0.217 0.312,-0.087 0.077,0.131 -0.09,-0.445 0.178,-0.23 0.263,0.217 0.251,0.3 0.263,0.325 0.004,0.036 0.524,0.192 0.524,0.127 0,-0.061 -0.057,-0.368 0,-0.247 0.068,0.118 0.211,0.201 0.211,0.201 l 0.653,-0.207 c 0,0 -0.294,-0.317 -0.135,-0.218 0.164,0.097 0.527,0.144 0.527,0.144 0,0 0.469,-0.025 0.536,0.036 0.06,0.051 0.144,0.173 -0.052,0.165 -0.189,0 -0.229,-0.038 -0.252,0 -0.023,0.036 -0.291,0.12 -0.366,0.213 -0.072,0.093 -0.453,0.065 -0.453,0.065 l -0.415,0.015 c 0,0 0,0.173 -0.036,0.241 -0.035,0.061 -0.475,0.327 -0.475,0.327 0,0 0.256,0.372 -0.374,0.245 -0.633,-0.135 -0.022,-0.222 0.083,-0.287 0.112,-0.063 -0.206,-0.372 -0.206,-0.372 0,0 -0.614,0.201 -0.539,0.306 0.071,0.101 0.241,0.507 0.241,0.566 0,0.049 -0.119,0.355 -0.241,0.361 -0.115,0.006 -0.889,0.167 -0.656,0.042 0.24,-0.126 0.447,-0.274 0.394,-0.38 -0.053,-0.104 -0.449,-0.429 -0.477,-0.439 -0.034,-0.008 -0.446,-0.274 -0.446,-0.274 0,0 -0.117,-0.276 0.309,-0.22 0.425,0.059 0.84,-0.011 0.84,-0.011 0,0 0.24,0.114 0.004,-0.046 -0.145,-0.099 -0.435,-0.266 -0.627,-0.376 0.081,0.059 0.092,0.118 -0.171,0.099 -0.515,-0.023 -0.452,-0.141 -0.515,-0.023 -0.066,0.118 -0.015,0.346 -0.066,0.346 -0.055,0 -0.877,-0.173 -0.887,-0.148 -0.016,0.019 0.182,-0.289 0.354,-0.268 0.168,0.027 0.109,-0.161 0.312,-0.169 0.201,-0.017 0.378,-0.226 0.122,-0.287 -0.258,-0.067 -0.31,-0.217 -0.31,-0.217 0,0 -0.832,-0.251 -0.253,-0.26 0.578,-0.017 0.538,-0.34 0.478,-0.34 -0.065,0 -0.619,0.209 -0.619,0.209 0,0 -0.341,0.186 -0.331,0.234 0.007,0.048 0.264,0.243 0.264,0.291 0,0.044 -0.047,0.418 -0.122,0.374 -0.073,-0.034 -0.34,-0.382 -0.256,-0.203 0.089,0.182 0.06,0.31 0.06,0.31 l -0.568,-0.545 c 0,0 0.074,-0.614 -0.051,-0.688 -0.126,-0.065 -0.229,-0.19 -0.377,-0.093 -0.136,0.093 -0.182,0.158 -0.31,0.262 -0.125,0.101 0.191,0.291 0.191,0.291 l -0.129,0.238 c 0.401,0.304 0.499,0.232 0.401,0.304 -0.028,0.023 -0.021,0.026 -0.016,0.026 -0.02,0.006 -0.062,0.015 -0.163,0.042 -0.336,0.095 -0.475,0.095 -0.475,0.095 0,0 -0.518,-0.487 -0.203,-0.019 0.316,0.473 0.257,0.287 0.361,0.496 0.101,0.205 0.936,0.074 0.101,0.349 -0.838,0.268 -0.652,-0.099 -0.652,-0.099 0,0 -0.137,-0.38 -0.141,-0.082 0,0.215 -0.074,0.182 -0.161,0.158 v -16.134 l 0.695,-0.699 -0.568,-0.568 v -2.031 l 2.266,-2.282 h -1.764 l -0.628,-3.292 h -7.669 v -1.9 h -43.361 l -0.755,-2.787 v -24.708 h -0.501 v 24.835 l -0.632,2.785 h -18.598 l -1.89,0.636 h -11.565 l -15.838,6.207 h -21.245 v -2.28 h -17.221 c -2.765,-1.769 -8.294,-2.534 -8.294,-2.534 v -3.927 c 1.133,-0.762 -0.129,-1.649 -0.129,-1.649 -7.916,-2.027 -10.804,0.253 -10.804,0.253 -1.389,0.633 -0.251,1.773 -0.251,1.773 v 3.676 c -2.136,0.129 -7.166,2.407 -7.166,2.407 h -1.635 l 1.005,-1.769 h -2.263 v -3.68 H 604.04 l 0.754,-1.391 v -0.633 l -3.895,-1.9 c 1.38,-1.774 -0.502,-2.282 -0.502,-2.282 v -15.328 c 2.761,-2.03 -0.251,-3.929 -0.251,-3.929 v -1.141 c -0.503,-1.775 -4.777,-3.291 -4.777,-3.291 v -7.604 c 3.386,-3.294 -0.759,-5.195 -0.759,-5.195 0,-4.435 -3.141,-5.319 -3.141,-5.319 -0.626,-16.091 -14.957,-22.167 -14.957,-22.167 v -2.466 c -0.597,-1.424 -3.421,-1.837 -3.421,-1.837 v -0.629 c 1.757,-1.582 -0.352,-2.564 -0.352,-2.564 v -7.714 c 2.864,-3.132 -1.128,-4.367 -1.128,-4.367 -0.153,-1.675 -1.032,-2.022 -1.032,-2.022 -1.318,-1.297 -1.004,-3.7 -1.004,-3.7 0.44,-2.277 -0.909,-2.973 -0.909,-2.973 -0.436,-0.346 0.123,-0.885 0.123,-0.885 0.598,-0.129 0.758,-0.982 0.758,-0.982 -0.758,-0.757 0.215,-1.898 0.215,-1.898 0.342,-3.036 -1.381,-4.298 -1.381,-4.298 0.188,-0.193 0,-0.633 0,-0.633 0,-0.318 0.568,0.315 0.568,0.315 0.248,-0.98 -0.406,-1.519 -0.406,-1.519 -1.07,-0.885 -1.163,0.222 -1.163,0.222 0.344,-0.031 0.157,0.632 0.157,0.632 -0.345,0.096 -0.379,0.665 -0.379,0.665 -1.16,0.474 -1.129,2.596 -1.129,2.596 -0.474,0.409 0.065,1.295 0.065,1.295 -0.628,0.311 -0.505,1.484 -0.505,1.484 -0.035,0.633 0.658,0.382 0.658,0.382 -0.153,0.189 0.363,2.634 0.363,2.634 -1.507,0.856 -0.944,2.851 -0.944,2.851 0.57,0.569 -0.652,3.515 -0.652,3.515 -1.421,0.57 -1.421,2.472 -1.421,2.472 -3.769,1.423 -1.225,4.179 -1.225,4.179 v 7.509 c -1.788,1.138 -0.38,2.753 -0.38,2.753 v 0.761 c -0.94,-0.096 -3.488,1.614 -3.488,1.614 v 2.564 c -13.381,5.61 -14.797,21.383 -14.797,21.383 -3.205,2.09 -3.49,5.893 -3.49,5.893 -4.431,2.564 -0.753,4.559 -0.753,4.559 v 8.172 c -3.3,1.33 -5.091,2.852 -5.091,2.852 v 1.518 c -3.392,1.904 -0.284,4.183 -0.284,4.183 v 14.916 c -1.788,1.049 -0.189,2.284 -0.189,2.284 l 0.095,0.475 -3.299,0.477 v 0.851 h -1.228 l 0.943,2.565 H 514.38 v 1.142 l -0.66,2.563 h -1.505 l 0.659,1.239 h -0.754 c -1.981,-1.334 -7.072,-2.378 -7.072,-2.378 v -4.087 c 0.944,-0.758 0,-1.427 0,-1.427 -6.976,-1.706 -10.938,0 -10.938,0 -0.754,0.669 -0.094,1.334 -0.094,1.334 v 3.988 c -3.11,0.287 -7.919,2.282 -7.919,2.282 h -18.852 c 0.47,0.095 -0.284,2.185 -0.284,2.185 l -20.835,-0.188 -16.024,-6.366 h -12.257 l -1.885,-1.174 h -15.544 l -1.198,-2.249 v -24.444 h -0.368 v 2.925 c 0.158,1.097 -2.494,4.708 -2.494,4.708 1.095,0 2.338,2.825 2.338,2.825 v 13.965 l -0.936,2.198 H 350.59 v 0.937 h -7.472 l -1.25,3.729 h -1.671 l 1.754,1.765 v 2.751 l -0.607,0.604 0.876,0.887 v 18.081 l -0.584,0.589 v 1.495 l 0.701,0.701 v 27.778 l 0.029,1.754 h -10.355 l -8.831,-142.705 -7.308,-12.005 -7.641,14.29 -3.256,140.417 h -2.467 v -16.92 h -2.793 v -1.7 h -3.036 v -1.698 h -1.214 l -1.579,-29.024 h 0.848 v -7.649 h 1.581 v -3.038 h -15.543 v -9.347 l -48.697,-0.732 -50.392,1.096 v 9.955 h -15.668 v 3.887 h 1.46 v 7.406 h 1.456 l -1.822,28.175 H 166.5 v 1.581 h -3.155 v 1.575 h -3.036 l -0.156,16.432 H 145.77 L 50,698.116 h 1100 z m -734.858,-47.764 0.851,-1.94 4.372,-0.12 1.094,1.695 v 28.055 h -6.317 z m -10.807,0.245 0.605,-1.942 5.101,-0.118 0.731,1.693 v 27.689 h -6.437 z m -11.292,0 0.971,-1.942 5.1,-0.118 0.97,2.183 v 27.44 h -7.041 z m -11.05,0.245 0.848,-2.067 5.709,-0.12 0.848,2.065 v 27.563 h -7.404 v -27.441 z m -11.418,0 0.974,-2.067 5.098,-0.238 0.607,2.544 v 27.322 h -6.679 z m -12.02,-0.245 0.853,-1.942 h 5.825 l 0.487,2.065 v 27.683 h -7.165 z m -11.413,0.361 0.725,-2.061 5.464,-0.123 0.484,1.945 v 27.808 h -6.674 v -27.569 z m -11.541,-0.361 0.854,-1.7 4.855,-0.123 0.732,2.183 v 27.445 h -6.44 v -27.805 z m -11.049,-0.12 1.094,-1.702 4.614,-0.12 0.609,1.942 v 27.93 h -6.317 z m -10.927,0 0.728,-1.702 4.98,-0.238 0.849,1.693 v 27.93 h -6.558 v -27.683 z m -9.839,0 0.368,-1.579 h 3.884 l 0.728,1.579 v 27.926 h -4.98 z m 679.008,33.605 c -0.056,-0.186 -0.056,-0.243 -0.056,-0.243 0,0 -0.029,-0.194 0.056,-0.234 z m 90.349,-30.174 h 5.458 c 0,0 -2.316,1.776 0.414,2.388 l -0.274,30.998 c 0,0 -0.756,0.412 -0.41,0.684 0,0 -0.547,0.545 -0.346,0.887 l -4.638,0.068 c 0,0 -0.203,-0.68 -0.547,-0.817 0,0 0.275,-0.684 -0.135,-0.887 l -0.274,-31.137 c -0.002,-10e-4 2.114,-0.274 0.752,-2.184 z m -10.517,-0.072 h 5.941 c 0,0 -1.913,1.298 0.137,2.326 l -0.344,31.066 c 0,0 -0.549,0.477 -0.272,0.68 0,0 -0.686,0.682 -0.412,0.956 h -4.85 c 0,0 0.072,-0.409 -0.409,-0.75 0,0 0.346,-0.756 -0.135,-0.958 l -0.201,-30.861 c 10e-4,10e-4 2.116,-0.952 0.545,-2.459 z m -11.128,1.982 c 0,0 2.115,-0.41 0.617,-1.911 h 5.939 c 0,0 -2.115,2.05 0.275,2.388 l -0.549,30.789 c 0,0 -0.61,0.621 -0.272,0.893 0,0 -0.612,0.545 -0.338,0.817 l -4.985,-0.137 c 0,0 0.063,-0.543 -0.547,-0.75 0,0 0.135,-0.549 -0.209,-0.823 z m -10.856,-1.91 h 6.693 c 0,0 -1.499,1.366 0.612,1.843 l -0.547,31.542 c 0,0 -0.547,0.477 -0.34,0.684 0,0 -0.547,0.477 -0.408,0.68 h -5.802 c 0,0 0.133,-0.477 -0.344,-0.68 0,0 0.135,-0.75 -0.205,-0.893 l -0.207,-31.127 c 10e-4,10e-4 1.981,-0.823 0.548,-2.049 z m -10.722,0 h 6.285 c 0,0 -1.774,1.296 0.547,2.05 l -0.686,30.926 c 0,0 -0.747,0.475 -0.135,1.094 0,0 -0.819,0.412 -0.547,0.752 l -5.19,-0.139 c 0,0 0.07,-0.547 -0.408,-0.75 0,0 0.272,-0.756 -0.139,-0.889 l -0.068,-30.861 c 0.002,0 1.984,-0.613 0.341,-2.183 z m -10.306,-0.207 h 5.803 c 0,0 -1.431,1.843 0.614,2.257 l -0.547,30.789 -0.068,0.612 c 0,0 -0.612,0.684 -0.135,1.163 l -5.327,0.068 c 0,0 0.069,-0.547 -0.547,-0.75 0,0 0.414,-0.684 -0.135,-0.956 l -0.066,-31.266 c 10e-4,0 1.841,-0.414 0.408,-1.917 z m -10.379,2.117 c 0,0 1.573,-0.819 0.14,-2.251 h 5.734 c 0,0 -1.438,1.636 0.476,2.116 l -0.543,31.268 c 0,0 -0.411,0.277 -0.072,0.614 0,0 -0.822,0.614 -0.548,0.956 h -4.502 v -0.479 l -0.619,-0.409 c 0,0 0.208,-0.405 -0.202,-0.682 z m -54.492,33.015 0.092,-0.059 0.107,-0.103 0.038,-0.135 c 0,0 0.196,-0.063 0.223,-0.002 0.024,0.053 0.059,0.086 0.059,0.086 h 0.16 l 0.033,0.038 0.116,0.04 0.047,-0.11 c 0,0 0.095,-0.053 0.095,-0.068 0,-0.013 -0.027,-0.076 -0.027,-0.076 l -0.175,-0.006 -0.234,0.008 c 0,0 -0.016,-0.051 -0.034,-0.051 -0.019,0 -0.25,-0.006 -0.25,-0.006 l -0.231,-0.008 0.106,-0.245 0.306,-0.118 0.11,0.038 0.206,0.032 0.068,0.049 c 0,0 0.294,-0.008 0.285,-0.057 -0.005,-0.048 0.055,-0.258 0.083,-0.249 0.026,0.011 0.159,0.148 0.159,0.182 0,0.032 -0.165,0.158 -0.165,0.158 0,0 0.152,0.105 0.173,0.089 0.027,-0.025 0.177,-0.078 0.207,-0.051 0.023,0.025 0.065,0.116 0.065,0.116 l 0.041,0.137 c 0,0 0.15,0.11 0.15,0.097 0.011,-0.013 0.062,-0.135 0.062,-0.186 0,-0.053 0.06,-0.139 0.138,-0.11 0.078,0.021 0.174,0.085 0.174,0.085 0,0 0.194,0.029 0.138,0.114 -0.062,0.08 -0.138,0.196 -0.138,0.196 0,0 -0.057,0.135 -0.107,0.175 -0.054,0.036 -0.294,0.16 -0.294,0.16 0,0 -0.109,-0.108 -0.203,-0.013 -0.089,0.087 -0.101,0.215 -0.094,0.23 0.005,0.013 -0.014,0.023 0.077,0.086 0.098,0.061 0.475,0.296 0.479,0.065 0.014,-0.226 -0.067,-0.123 0.056,-0.256 0.113,-0.131 0.067,-0.186 0.116,-0.283 0.045,-0.097 0.222,-0.194 0.222,-0.264 0,-0.068 0.11,-0.319 0.11,-0.319 0,0 0.058,0.008 0.049,-0.173 -0.003,-0.184 0.128,-0.103 0.13,-0.238 0.011,-0.129 0.011,-0.192 0.116,-0.247 0.105,-0.053 0.2,-0.163 0.161,-0.184 -0.029,-0.027 -0.168,-0.194 -0.184,-0.211 -0.021,-0.021 -0.068,-0.021 -0.068,-0.076 -0.008,-0.049 0.034,-0.148 0,-0.228 -0.023,-0.076 -0.029,-0.3 -0.029,-0.3 0,0 0.219,-0.082 0.303,0.006 0.082,0.095 0.114,0.032 0.104,0.152 -0.013,0.135 -0.04,0.055 -0.027,0.169 0.015,0.114 0.096,0.256 0.096,0.256 0,0 0.08,0.025 0.114,0.029 0.03,0.008 0.353,-0.029 0.353,-0.029 0,0 0.165,-0.042 0.056,0.061 -0.114,0.105 -0.304,0.253 -0.304,0.253 0,0 0.025,0.036 -0.002,0.059 -0.029,0.021 0.063,0.089 0.099,0.051 0.04,-0.032 0.034,-0.245 0.145,-0.12 0.11,0.131 0.142,0.175 0.134,0.188 -0.004,0.019 0.031,0.139 0.031,0.139 0,0 -0.055,-0.116 -0.337,0.135 -0.285,0.247 -0.425,0.051 -0.458,0.359 -0.004,0.034 -0.004,0.063 -0.004,0.08 -0.026,0.004 -0.063,0.011 -0.126,0.048 -0.317,0.173 -0.188,0.099 0.007,0.182 0.195,0.087 0.27,-0.067 0.346,0.087 0.072,0.152 0.273,0.144 -0.041,0.152 -0.31,0.006 -0.316,-0.087 -0.271,0.095 0.039,0.167 0.139,0.16 0.078,0.23 -0.057,0.07 -0.168,0.044 -0.117,0.148 0.051,0.106 0.17,0.148 0.17,0.148 0,0 0.338,-0.065 0.349,-0.082 0.013,-0.013 0.107,-0.044 0.154,-0.165 0.044,-0.127 0.025,-0.148 0.098,-0.148 0.07,0 -0.112,0.048 0.07,0 0.183,-0.051 0.471,0.013 0.315,-0.106 -0.158,-0.114 -0.508,-0.331 -0.238,-0.304 0.272,0.027 0.322,0.013 0.395,0.059 0.073,0.051 0.068,0.034 0.132,0.091 0.063,0.057 0.05,-0.044 0.063,0.057 0.015,0.104 -0.277,0.249 -0.297,0.249 -0.016,0 -0.167,0.065 -0.187,0.131 -0.024,0.07 -0.133,0.209 -0.133,0.209 l 0.166,0.097 c 0,0 0.107,-0.049 0.15,-0.085 0.033,-0.032 0.164,-0.131 0.173,-0.072 0.005,0.059 -0.2,0.232 -0.216,0.243 -0.018,0.008 -0.23,0.025 -0.23,0.025 0,0 0.025,0.19 0.044,0.201 0.02,0.008 0.175,0.002 0.209,-0.006 0.034,-0.004 0.109,-0.093 0.134,0.006 0.025,0.101 0.038,0.142 0.03,0.165 -0.004,0.015 -0.009,0.065 0.04,0.065 0.057,0 0.156,0.013 0.136,0.042 -0.019,0.03 -0.156,0.093 -0.168,0.11 -0.004,0.025 -0.03,0.032 0.085,0.078 0.108,0.044 0.119,0.019 0.159,0.044 0.039,0.034 0.043,0.078 0.05,0.129 0.005,0.057 -0.018,0.099 -0.025,0.116 -0.014,0.015 -0.014,0.015 -0.014,0.015 0,0 0.021,0.021 0.112,0.023 0.085,0 0.312,-0.013 0.312,-0.139 -0.007,-0.12 0.022,-0.23 -0.007,-0.247 -0.025,-0.023 -0.078,-0.076 -0.078,-0.076 0,0 -0.132,-0.086 -0.167,-0.108 -0.029,-0.013 -0.095,-0.243 -0.095,-0.243 0,0 0.212,-0.16 0.282,-0.067 0.071,0.095 0.042,0.129 0.088,0.188 0.053,0.065 0.11,0.106 0.11,0.106 0,0 0.093,0.042 0.118,0 0.023,-0.044 0.137,-0.167 0.137,-0.167 0,0 0.064,-0.044 0.112,-0.036 0.047,0.004 0.108,0 0.103,-0.023 -0.006,-0.027 0.05,-0.127 -0.088,-0.211 -0.142,-0.089 -0.13,-0.236 -0.174,-0.236 -0.047,0 -0.019,-0.112 -0.116,-0.015 -0.102,0.095 0.003,0.026 -0.141,0.118 -0.141,0.099 -0.116,0.099 -0.141,0.099 -0.028,0 -0.098,-0.072 -0.106,-0.091 -0.005,-0.021 0.017,-0.082 -0.022,-0.118 -0.04,-0.029 -0.04,-0.08 -0.056,-0.086 -0.022,-0.015 -0.134,-0.074 -0.134,-0.074 l 0.125,-0.163 0.048,-0.2 c 0,0 -0.024,-0.027 0.113,0.101 0.15,0.118 -0.03,0.135 0.15,0.118 0.168,-0.013 0.34,-0.032 0.363,-0.032 0.029,0 0,-0.038 0.029,0 0.036,0.04 0.184,0.116 0.184,0.116 0,0 0.099,0.072 0.139,0.194 0.037,0.112 -0.049,0.173 -0.049,0.173 0,0 0.1,0.082 0.145,0.133 0.044,0.057 -0.005,0.051 0.073,0.133 0.084,0.082 0.121,-0.006 0.121,-0.027 0,-0.017 -0.019,-0.161 -0.019,-0.203 0,-0.042 0.029,-0.144 0.029,-0.144 0,0 0.141,0.07 0.141,0.082 0,0.015 0.042,0.274 0.042,0.274 l 0.11,0.057 c 0,0 0.145,0.008 0.145,-0.04 0,-0.048 -0.056,-0.16 -0.072,-0.171 -0.01,-0.017 -0.029,-0.133 -0.048,-0.171 -0.019,-0.036 -0.024,-0.059 -0.024,-0.059 l -0.017,-0.099 -0.215,-0.061 h -0.042 l -0.2,-0.013 c 0,0 -0.047,-0.021 -0.096,-0.086 -0.05,-0.061 -0.092,0 -0.062,-0.087 0.035,-0.078 0.08,-0.034 0.095,-0.141 0.015,-0.112 0.013,-0.169 0.013,-0.169 0,0 -0.056,-0.12 -0.04,-0.135 0.013,-0.015 0.091,-0.055 0.06,-0.084 -0.035,-0.027 -0.133,-0.106 -0.133,-0.106 0,0 0.123,-0.034 0.098,-0.095 -0.025,-0.055 -0.141,-0.251 -0.151,-0.277 -0.004,-0.019 -0.063,-0.089 -0.063,-0.089 l -0.28,0.053 c 0,0 0.128,0.139 0.052,0.179 -0.079,0.042 -0.131,0.237 -0.146,0.26 -0.022,0.017 -0.057,0.004 -0.027,0.068 0.029,0.059 0.188,0.086 0.078,0.137 -0.112,0.047 -0.336,0.082 -0.393,0.019 -0.055,-0.066 -0.076,-0.152 -0.076,-0.249 0.004,-0.097 0.004,-0.196 -0.044,-0.209 -0.04,-0.015 -0.062,-0.078 -0.275,-0.139 -0.217,-0.055 -0.207,-0.116 -0.319,-0.021 -0.111,0.089 -0.481,0.137 -0.35,0.017 0.128,-0.129 0.44,-0.139 0.513,-0.179 0.072,-0.044 -0.011,-0.251 -0.026,-0.264 -0.013,-0.023 0.316,0.08 0.316,0.101 0,0.017 0.289,0.203 0.289,0.203 0,0 0.246,0.047 0.257,-0.011 0.015,-0.059 0.006,-0.213 0.006,-0.213 l -0.145,-0.059 0.178,-0.103 c 0,0 0.139,-0.08 0.089,-0.144 -0.05,-0.065 -0.05,-0.065 -0.05,-0.082 0,-0.015 0.138,-0.186 0.138,-0.203 0,-0.015 -0.013,-0.097 -0.013,-0.097 l -0.477,-0.042 c 0,0 -0.045,-0.089 -0.065,-0.123 -0.019,-0.036 -0.316,-0.114 -0.316,-0.114 0,0 0.208,-0.021 0.284,-0.013 0.08,0.008 0.172,0.07 0.172,0.07 l 0.207,0.036 c 0,0 0.197,-0.063 0.119,-0.11 -0.072,-0.049 -0.257,-0.192 -0.257,-0.192 l -0.07,-0.135 c 0,0 -0.033,-0.103 -0.108,-0.148 -0.082,-0.044 -0.174,-0.247 -0.23,-0.165 -0.051,0.089 -0.39,0.312 -0.39,0.312 l 0.073,0.175 -0.297,0.116 c 0,0 0.022,0.086 0,0.114 -0.022,0.032 -0.027,0.072 -0.082,0.123 -0.065,0.048 -0.081,0.099 -0.108,0.048 -0.027,-0.046 0,-0.112 -0.027,-0.15 -0.022,-0.025 -0.17,-0.144 -0.17,-0.243 0,-0.097 0.293,-0.275 0.293,-0.275 l 0.14,-0.08 0.056,0.148 c 0,0 0.122,-0.16 0.127,-0.177 0,-0.011 -0.039,-0.188 -0.039,-0.234 0,-0.051 0.059,-0.175 0.097,-0.142 0.038,0.036 0.163,0.165 0.163,0.165 l 0.064,-0.258 c 0,0 -0.139,-0.106 0.025,-0.211 0.164,-0.114 0.361,-0.08 0.337,-0.154 -0.023,-0.07 -0.179,-0.152 -0.115,-0.152 0.064,0 0.254,-0.002 0.27,-0.008 0.023,-0.013 -0.016,-0.203 0.085,-0.16 0.104,0.048 0.211,0.144 0.155,0.179 -0.056,0.04 -0.123,0.053 -0.123,0.086 0,0.034 0.19,0.074 0.179,0.129 -0.004,0.049 -0.279,0.101 -0.279,0.101 l 0.19,0.095 c 0,0 0.108,0.053 0.145,0.112 0.039,0.063 0.121,-0.044 0.043,0.084 -0.072,0.131 -0.211,0.173 -0.211,0.173 0,0 -0.053,0.034 0,0.068 0.051,0.04 0.146,0.156 0.146,0.156 0,0 0.085,0.093 0.133,0.148 0.051,0.063 0.148,0.099 0.197,0.116 0.044,0.015 0.039,0.085 0.178,0.055 0.144,-0.025 0.057,0.04 0.223,0.072 0.168,0.036 0.251,0.074 0.251,0.108 0,0.021 0.062,0.3 0.062,0.3 0,0 -0.13,0.074 -0.135,0.19 0,0.114 -0.245,0.336 -0.245,0.336 0,0 -0.215,0.095 -0.167,0.118 0.05,0.025 0.272,0.04 0.272,0.04 0,0 0.217,-0.091 0.217,-0.104 0,-0.011 -0.024,-0.15 0.066,-0.103 0.09,0.042 0.086,0.04 0.118,0.086 0.027,0.049 -0.011,0.11 0.095,0.08 0.1,-0.027 0.132,-0.051 0.132,-0.051 l 0.024,-0.112 -0.061,-0.076 c 0,0 -0.023,0.053 -0.128,-0.125 -0.108,-0.186 -0.108,-0.391 -0.108,-0.391 0,0 0.04,-0.266 -0.015,-0.353 -0.052,-0.08 -0.169,-0.23 -0.169,-0.23 0,0 0.433,-0.013 0.407,-0.116 -0.025,-0.106 0.157,-0.006 -0.139,-0.106 -0.302,-0.103 -0.306,-0.135 -0.357,-0.207 -0.056,-0.074 -0.095,-0.234 -0.141,-0.196 -0.044,0.034 -0.104,0.241 -0.191,0.122 -0.08,-0.118 0.025,-0.249 0.054,-0.26 0.033,-0.006 0.22,-0.066 0.283,-0.015 0.063,0.057 0.129,0.146 0.168,0.194 0.034,0.044 0.148,0.08 0.245,0.131 0.091,0.051 0.146,0.106 0.243,0.086 0.101,-0.027 0.215,-0.186 0.149,-0.211 -0.075,-0.03 -0.075,-0.036 -0.112,-0.055 -0.037,-0.019 -0.078,-0.091 -0.184,-0.146 -0.098,-0.053 -0.168,-0.008 -0.255,-0.152 -0.09,-0.135 -0.114,-0.256 -0.114,-0.256 0,0 -0.089,-0.086 -0.139,-0.152 -0.039,-0.059 -0.311,-0.243 -0.311,-0.243 0,0 -0.039,-0.078 -0.078,-0.057 -0.037,0.021 -0.393,0.015 -0.403,0.034 -0.006,0.03 -0.038,0.108 -0.104,0.104 -0.074,-0.008 -0.169,-0.023 -0.203,-0.08 -0.031,-0.063 -0.105,-0.308 -0.105,-0.308 0,0 0.129,0.019 0.082,-0.171 -0.04,-0.205 -0.049,-0.16 -0.04,-0.205 0.008,-0.038 0.209,0.019 0.097,-0.163 -0.106,-0.177 -0.156,-0.198 -0.173,-0.218 -0.016,-0.013 -0.09,-0.163 -0.09,-0.163 0,0 0.079,-0.101 0.176,-0.066 0.095,0.036 0.171,0.106 0.188,0.106 0.016,0 0.11,0.042 0.197,-0.011 0.08,-0.051 0.165,-0.078 0.165,-0.091 0,-0.019 -0.156,-0.135 0.09,-0.112 0.245,0.023 0.155,-0.032 0.245,0.023 0.096,0.055 0.168,0.061 0.189,0.04 0.018,-0.011 0.246,-0.169 0.28,-0.004 0.034,0.16 -0.067,0.317 -0.099,0.365 -0.039,0.046 -0.147,0.129 -0.147,0.129 0,0 -0.183,-0.226 -0.201,-0.226 -0.017,-0.011 -0.335,-0.072 -0.402,-0.032 -0.068,0.053 -0.266,0.319 -0.266,0.351 0,0.025 0.167,0.247 0.171,0.293 0.005,0.055 -0.222,0.207 -0.125,0.23 0.095,0.027 -0.133,0.142 0.165,0.027 0.29,-0.114 0.44,-0.412 0.475,-0.283 0.041,0.122 0.108,0.344 0.108,0.344 l 0.355,-0.061 c 0,0 -0.022,0.203 -0.029,0.222 -0.005,0.017 -0.122,0.038 -0.033,0.144 0.089,0.112 0.116,0.084 0.107,0.139 -0.006,0.053 -0.006,0.161 0.027,0.175 0.033,0.017 0.155,0.034 0.145,0.006 -0.002,-0.027 -0.033,-0.169 -0.033,-0.169 0,0 0.185,-0.101 0.185,-0.118 0,-0.013 -0.152,-0.238 -0.152,-0.238 l 0.226,0.078 0.227,-0.144 c 0,0 0.201,0.004 0.143,0.108 -0.06,0.085 -0.266,0.285 -0.291,0.304 -0.027,0.019 -0.034,0.203 -0.034,0.203 0,0 -0.175,0.114 -0.206,0.127 -0.026,0.017 0.175,0.084 0.195,0.084 0.02,0 0.15,-0.082 0.17,-0.129 0.023,-0.046 0.113,-0.241 0.153,-0.247 0.042,0 0.126,-0.101 0.103,-0.144 -0.019,-0.04 0.263,-0.308 0.289,-0.175 0.029,0.135 -0.065,0.197 -0.115,0.281 -0.04,0.082 -0.123,0.272 -0.123,0.272 0,0 -0.206,0.291 0.023,0.156 0.228,-0.131 0.359,-0.361 0.359,-0.361 0,0 0.153,0.01 0.153,0.029 -0.002,0.017 0.165,0.108 0.173,0.049 0.015,-0.057 0,-0.243 -0.019,-0.253 -0.017,-0.013 -0.232,-0.19 -0.209,-0.194 0.022,0 0.4,-0.026 0.4,-0.026 0,0 0.108,-0.243 0.057,-0.26 -0.04,-0.015 -0.346,-0.164 -0.363,-0.179 -0.022,-0.017 -0.092,-0.086 -0.134,-0.086 -0.044,0 -0.422,0.004 -0.437,0.03 -0.015,0.023 -0.31,0.23 -0.346,0.114 -0.031,-0.123 0.153,-0.184 0.24,-0.287 0.088,-0.101 -0.091,-0.304 0.104,-0.279 0.195,0.034 0.285,0.114 0.273,0.137 -0.014,0.015 0.26,0.106 0.26,0.106 0,0 0.106,0.274 0.175,0.048 0.068,-0.218 0.106,-0.23 0.106,-0.291 0,-0.038 0.074,-0.038 0.134,-0.025 -0.011,0.036 0.057,0.179 0.34,0.612 0.604,0.91 0.542,0.802 0.542,0.802 l 0.029,0.015 c 0,0 -0.154,0.078 -0.218,0.082 -0.061,0.006 -0.129,-0.004 -0.129,-0.004 0,0 -0.126,-0.07 -0.145,-0.055 -0.022,0.015 -0.118,0.137 -0.13,0.125 -0.004,-0.015 -0.16,-0.118 -0.16,-0.118 l -0.007,0.093 0.017,0.089 c 0,0 0.062,0.049 0.062,0.076 0,0.021 -0.079,0.066 -0.12,0.091 -0.041,0.025 -0.226,0.025 -0.226,0.025 0,0 -0.212,-0.034 -0.156,0.044 0.053,0.087 0.055,0.099 0.055,0.12 0,0.021 -0.171,0.055 -0.177,0.068 -0.01,0.015 -0.048,-0.047 -0.022,0.055 0.022,0.104 -0.01,0.139 -0.027,0.159 -0.022,0.021 0.172,0.008 0.197,0.036 0.027,0.04 -0.076,0.089 0.027,0.116 0.107,0.023 0.072,0.04 0.166,0.013 0.104,-0.029 0.133,-0.004 0.161,-0.074 0.022,-0.07 0.078,-0.116 0.022,-0.116 -0.051,0 -0.119,-0.063 -0.055,-0.097 0.069,-0.032 0.076,-0.032 0.069,-0.076 -0.014,-0.042 -0.075,-0.08 -0.075,-0.08 0,0 0.173,-0.002 0.218,-0.082 0.039,-0.076 0.046,-0.123 0.046,-0.123 0,0 -0.51,0.078 0.023,-0.042 0.533,-0.127 0.58,-0.245 0.58,-0.245 l 0.132,0.076 0.117,0.116 c 0,0 -0.256,0.095 -0.298,0.118 -0.048,0.023 -0.033,-0.093 -0.126,0.023 -0.091,0.118 -0.137,0.118 -0.137,0.118 0,0 -0.021,-0.059 -0.071,-0.042 -0.056,0.023 -0.111,0.008 -0.1,0.08 0.017,0.072 0.028,0.137 0.028,0.137 0,0 -0.034,0.04 -0.034,0.072 0,0.032 0.022,0.086 0.034,0.101 0.014,0.017 0.072,0.142 0.072,0.021 0,-0.114 0.102,-0.205 0.127,-0.201 0.026,0.004 0.063,-0.004 0.081,0.047 0.01,0.055 0.077,0.091 0.099,0.021 0.018,-0.072 -0.148,-0.068 0.05,-0.139 0.19,-0.072 0.198,-0.078 0.218,-0.067 0.021,0.011 0.091,0.023 0.122,0.053 0.034,0.034 0.06,0.034 0.06,0.059 0,0.023 0.005,-0.141 0.038,0.19 0.029,0.325 0.057,0.063 0.029,0.325 -0.029,0.26 0.136,0.502 0.127,0.547 -0.012,0.049 -0.098,-0.108 -0.195,0.006 -0.101,0.114 -0.099,0.046 -0.101,0.114 0,0.065 0.005,0.072 0.005,0.097 0,0.034 0.012,0.169 0.032,0.173 0.018,0 0.12,-0.019 0.12,-0.019 0,0 0.089,0.175 0.086,0.203 0,0.027 -0.07,0.095 -0.086,0.108 -0.016,0.017 -0.006,0 -0.051,0.061 -0.049,0.067 0.051,0.152 0.051,0.152 0,0 -0.125,0.078 -0.016,0.144 0.109,0.063 0.09,0.198 0.09,0.198 0,0 0.065,0.027 0.118,0.089 0.047,0.061 0.047,0.114 0.147,0.15 0.095,0.038 0.037,0.044 0.095,0.038 0.062,-0.006 0.152,-0.023 0.152,-0.023 0,0 0.142,-0.059 0.258,0 0.118,0.061 0.192,0.086 0.228,0.133 0.032,0.047 0.136,0.209 0.136,0.209 l -0.014,0.12 c 0.127,0.129 0.155,0.139 0.155,0.139 l -0.109,0.228 0.051,0.135 c 0,0 -0.137,0.07 -0.183,0.082 -0.048,0.004 -0.138,-0.038 -0.176,-0.051 -0.04,-0.013 -0.019,-0.044 -0.071,-0.027 -0.054,0.019 -0.143,0.078 -0.156,0.095 -0.015,0.023 0.019,-0.036 -0.165,0.006 -0.075,0.021 -0.122,0.004 -0.151,-0.013 0.039,0.046 0.083,0.099 0.117,0.125 0.039,0.029 0.004,0.095 0.288,0.095 0.281,0 0.331,0.002 0.331,0.002 0,0 0.154,-0.021 0.186,-0.08 0.032,-0.061 -0.019,-0.093 0.098,-0.112 0.118,-0.029 0.146,-0.036 0.196,-0.158 0.056,-0.116 0.218,-0.148 0.161,-0.26 -0.056,-0.114 0.005,-0.059 -0.097,-0.194 -0.104,-0.133 -0.188,-0.228 -0.195,-0.245 -0.015,-0.008 -0.048,-0.175 0.122,-0.122 0.167,0.057 0.379,0.215 0.398,0.08 0.023,-0.133 0.023,-0.196 0.023,-0.196 0,0 0.123,-0.148 -0.035,-0.209 -0.165,-0.059 -0.113,-0.213 -0.211,-0.213 -0.09,-0.004 -0.126,-0.021 -0.228,0.032 -0.107,0.049 -0.495,0.023 -0.542,0.023 -0.044,0 -0.458,-0.063 -0.458,-0.063 0,0 0.067,-0.023 0.358,-0.042 0.284,-0.025 0.661,-0.26 0.661,-0.26 0,0 0.273,-0.122 0.348,-0.036 0.064,0.08 0.251,0.349 0.251,0.349 0,0 0.402,-0.125 0.414,-0.044 0.01,0.078 -0.049,0.213 -0.049,0.226 0,0.021 -0.007,0.053 0.059,0.135 0.068,0.082 0.16,0.15 0.201,0.15 0.049,0.002 0.23,-0.063 0.19,0.002 -0.035,0.068 0.168,0.076 0.118,0.154 -0.053,0.08 -0.151,0.15 -0.003,0.205 0.148,0.048 0.109,0.063 0.215,0.063 0.1,0 0.315,-0.106 0.315,-0.148 0,-0.042 0.163,-0.306 0.148,-0.306 -0.021,-0.011 -0.334,-0.158 -0.438,-0.091 -0.102,0.074 -0.198,0.072 -0.226,0.066 -0.033,-0.008 -0.021,-0.281 -0.021,-0.281 0,0 0.021,-0.097 0.005,-0.144 -0.019,-0.049 0.026,-0.334 -0.083,-0.308 -0.108,0.03 -0.377,-0.019 -0.377,-0.019 0,0 0.048,0.036 -0.102,-0.006 -0.148,-0.04 -0.113,-0.15 -0.312,-0.19 -0.192,-0.053 -0.371,-0.264 -0.371,-0.264 0,0 -0.262,-0.179 0,-0.093 0.255,0.082 0.336,0.082 0.42,0.139 0.083,0.061 0.367,0.023 0.356,-0.186 -0.008,-0.203 -0.161,-0.025 -0.363,-0.116 -0.194,-0.087 -0.131,0.063 -0.245,-0.22 -0.108,-0.287 -0.06,-0.334 -0.045,-0.408 0.017,-0.061 0.357,-0.135 0,-0.298 -0.367,-0.169 -0.367,-0.165 -0.39,-0.179 -0.027,-0.013 -0.15,-0.2 -0.15,-0.2 0,0 0.06,-0.065 0.203,-0.011 0.143,0.051 0.316,0.146 0.322,0.184 0.004,0.032 0.211,-0.074 0.323,-0.025 0.104,0.057 0.139,0.051 0.134,0.131 -0.011,0.072 -0.1,0.171 -0.152,0.224 -0.041,0.044 0.099,0.264 0.118,0.274 0.023,0.021 0.234,-0.008 0.296,0.021 0.056,0.038 0.173,0.063 0.178,0.127 0.003,0.061 0.073,0.127 0.073,0.127 0,0 0.149,0.091 0.163,-0.019 0.021,-0.104 0.104,-0.078 0.122,-0.027 0.011,0.051 0.089,0.241 0.089,0.241 0,0 0.112,-0.135 0.056,0.017 -0.056,0.156 -0.1,0.158 -0.134,0.215 -0.034,0.053 -0.201,0.093 -0.234,0.097 -0.033,0.011 -0.205,-0.19 -0.089,-0.032 0.117,0.165 0.161,0.179 0.197,0.179 0.039,0 0.215,0.006 0.249,0.006 0.033,0 0.139,-0.123 0.24,-0.082 0.107,0.038 0.296,-0.127 0.18,0.125 -0.114,0.249 0.043,0.15 -0.114,0.249 -0.156,0.104 -0.352,0.152 -0.352,0.184 0,0.027 0.036,0.175 0.036,0.175 0,0 0.166,0.04 0.182,0.049 0.016,0.011 0.083,0.11 0.083,0.125 0,0.025 0.322,-0.034 0.431,0.087 0.106,0.112 0.187,0.298 0.187,0.298 0,0 0.227,-0.108 0.198,-0.173 -0.034,-0.065 -0.319,-0.287 -0.319,-0.287 0,0 -0.383,-0.177 -0.2,-0.154 0.18,0.027 0.381,-0.015 0.318,-0.055 -0.062,-0.04 -0.414,-0.302 -0.414,-0.302 0,0 0.334,0.051 0.334,0.008 0.008,-0.048 -0.039,-0.304 -0.149,-0.416 -0.108,-0.112 -0.086,-0.177 -0.035,-0.211 0.049,-0.04 0.112,-0.129 -0.134,-0.205 -0.246,-0.074 0.029,0.31 -0.229,-0.152 -0.255,-0.465 -0.312,-0.353 -0.154,-0.465 0.154,-0.114 0.305,-0.139 0.35,-0.047 0.045,0.095 0.103,0.198 0.122,0.007 0.022,-0.197 0.113,-0.085 -0.009,-0.365 -0.135,-0.283 -0.19,-0.279 -0.207,-0.35 -0.023,-0.072 -0.029,-0.156 0.139,-0.082 0.172,0.08 0.285,0.089 0.248,0 -0.039,-0.084 -0.053,-0.247 -0.053,-0.247 0,0 -0.023,0.015 -0.195,0.04 -0.168,0.027 -0.157,0.08 -0.205,0.021 -0.048,-0.055 -0.082,-0.123 -0.063,-0.135 0.022,-0.015 0.19,-0.167 0.279,-0.125 0.089,0.048 0.198,0.032 0.198,0.032 0,0 0.089,0.025 0.148,-0.032 0.058,-0.063 0.128,-0.063 0.118,-0.144 -0.012,-0.074 -0.058,-0.156 -0.058,-0.156 0,0 0.118,-0.034 0.13,-0.046 0.016,-0.017 0.362,0.057 0.362,0.057 0,0 0.436,0 0.45,-0.011 0.013,-0.017 -0.132,-0.154 -0.142,-0.169 -0.01,-0.008 -0.007,-0.108 0,-0.156 0.357,0.325 0.685,0.636 0.707,0.709 0,0 0.045,0.095 -0.022,0.165 -0.073,0.074 -0.061,0.055 -0.073,0.074 -0.016,0.017 -0.016,0.133 -0.016,0.133 0,0 0.03,0.044 0.013,0.125 -0.024,0.068 -0.082,0.154 -0.082,0.173 0,0.017 -0.072,0.152 -0.076,0.165 -0.011,0.013 -0.178,0.099 -0.229,0.131 -0.055,0.034 -0.134,0.087 -0.212,0.146 -0.075,0.07 -0.045,0.08 -0.174,0.101 -0.128,0.027 -0.467,0.047 -0.467,0.047 l -0.198,0.152 0.104,0.061 c 0,0 0.123,-0.032 0.044,0.044 -0.078,0.086 -0.203,0.222 -0.246,0.234 -0.048,0.015 0.017,0.125 0.051,0.106 0.033,-0.015 0.128,-0.11 0.178,-0.171 0.044,-0.061 0.112,-0.133 0.134,-0.133 0.022,0 0.385,-0.053 0.414,-0.053 0.021,0 0.111,0.135 0.123,0.16 0.002,0.03 0.143,0.025 0.169,0.019 0.025,-0.004 0.153,-0.023 0.219,-0.008 0.073,0.008 0.157,0.085 0.157,0.101 0,0.015 0.23,0.213 0.23,0.213 l 0.118,-0.12 c 0,0 0.165,-0.12 0.165,-0.008 0.012,0.112 0.06,0.108 0.023,0.198 -0.04,0.089 0.018,0.019 -0.058,0.139 -0.079,0.118 -0.312,0.321 -0.328,0.321 -0.016,0 -0.155,-0.141 -0.178,-0.23 -0.024,-0.087 -0.02,-0.179 -0.112,-0.179 -0.089,0 -0.098,-0.019 -0.207,0 -0.111,0.015 -0.311,0.032 -0.322,0.015 -0.014,-0.019 0.254,-0.074 0.151,-0.19 -0.112,-0.114 -0.229,-0.192 -0.247,-0.188 -0.019,0.002 -0.045,0.057 -0.123,0.099 -0.081,0.042 0.061,0.131 0.061,0.131 0,0 -0.207,0.006 -0.189,0.082 0.02,0.087 0.132,0.127 0.155,0.133 0.017,0.01 0.317,0.057 0.383,0.074 0.062,0.019 -0.092,0.167 -0.092,0.167 -0.065,0.065 -0.174,-0.025 -0.039,0.093 0.128,0.125 0.212,0.194 0.15,0.209 -0.056,0.013 -0.1,0.042 -0.201,0.057 -0.096,0.013 -0.152,-0.085 -0.152,-0.106 0,-0.023 -0.378,-0.262 -0.378,-0.262 0,0 -0.062,0.057 -0.051,0.198 0.006,0.154 0.168,0.264 0.168,0.264 0,0 -0.03,0.112 -0.03,0.154 0,0.049 0.118,0.139 0.14,0.148 0.018,0.008 0.297,0.027 0.335,0.053 0.042,0.032 0.151,0.066 0.163,0.099 0.01,0.036 0.025,0.047 -0.005,0.08 -0.035,0.036 -0.157,0.101 -0.157,0.101 0,0 -0.591,0.213 -0.117,0.213 0.487,-0.004 0.487,-0.004 0.487,-0.004 l 0.217,0.032 c 0,0 0.011,0.078 0.011,0.095 0,0.023 -0.078,-0.008 -0.02,0.084 0.057,0.091 0.244,0.072 0.244,0.072 0,0 0.05,-0.013 0.053,0.027 0.008,0.036 -0.149,0.087 -0.02,0.179 0.129,0.095 0.468,0.234 0.468,0.234 l -0.104,-0.243 c 0,0 -0.164,-0.144 -0.079,-0.163 0.096,-0.017 0.212,-0.108 0.286,-0.027 0.07,0.076 0.302,-0.053 0.291,-0.07 -0.014,-0.011 -0.22,-0.207 -0.22,-0.207 0,0 0.21,0.196 0.345,0.184 0.122,0 0.033,0.013 0.186,-0.008 0.154,-0.019 0.305,0.048 0.189,-0.027 -0.117,-0.063 -0.241,-0.123 -0.241,-0.123 l 0.221,-0.019 0.075,-0.086 c 0,0 0.441,-0.051 0.224,-0.122 -0.224,-0.068 -0.374,-0.127 -0.381,-0.11 -0.004,0.017 -0.24,0.11 -0.24,0.11 0,0 -0.122,0.038 -0.172,-0.087 -0.051,-0.129 -0.128,-0.247 -0.128,-0.247 l -0.26,-0.08 -0.444,0.017 c 0,0 -0.039,0 -0.1,-0.013 -0.067,-0.017 -0.208,-0.116 -0.208,-0.116 0,0 0.097,-0.141 0.13,-0.139 0.033,0 0.242,0.051 0.242,0.051 l 0.108,-0.186 c 0,0 0.172,-0.025 0.223,-0.017 0.053,0.013 0.214,-0.051 0.23,0.066 0.011,0.118 -0.018,0.146 -0.038,0.158 -0.019,0.004 -0.07,-0.063 -0.07,0 0,0.051 0.165,0.051 0.165,0.051 l 0.122,-0.011 c 0,0 0.128,-0.032 0.192,-0.021 0.068,0.011 0.158,0.057 0.21,0.057 0.051,0 0.205,0.002 0.262,0.002 0.061,-0.011 0.375,-0.074 0.375,-0.074 0,0 0.054,-0.167 0.033,-0.188 -0.019,-0.019 -0.26,0.084 -0.26,0.084 0,0 -0.158,-0.074 -0.158,-0.131 0,-0.053 -0.082,-0.152 -0.082,-0.152 L 840.69,659.8 c 0,0 0.352,0.025 0.253,-0.074 -0.102,-0.097 -0.15,-0.103 -0.23,-0.156 -0.074,-0.046 -0.189,-0.217 -0.189,-0.217 0,0 0.059,0.158 -0.014,0.198 -0.08,0.04 -0.096,0.076 -0.105,0.114 -0.005,0.03 0.067,0.3 0.067,0.3 l 0.038,0.112 -0.205,0.08 c 0,0 -0.039,0.163 -0.102,0.101 -0.055,-0.055 -0.062,-0.055 -0.05,-0.15 0.013,-0.095 -0.022,-0.049 0.035,-0.188 0.05,-0.139 0.05,-0.226 0.05,-0.226 0,0 0,-0.144 -0.027,-0.207 -0.022,-0.068 -0.212,-0.291 -0.224,-0.304 -0.014,-0.019 -0.053,-0.032 -0.151,-0.086 -0.092,-0.051 -0.307,-0.169 -0.307,-0.184 0,-0.013 0.017,-0.426 0.19,-0.207 0.173,0.211 0.017,0.179 0.017,0.179 l 0.148,0.106 c 0,0 0.08,-0.087 0.152,0.013 0.08,0.104 0.053,0.104 0.08,0.104 0.033,0 0.234,0.127 0.234,0.127 0,0 0.078,-0.087 0.078,-0.146 0.002,-0.059 -0.039,-0.133 0.1,-0.076 0.135,0.051 0.121,0.139 0.139,0.139 0.022,0 0.11,-0.063 0.11,-0.063 0,0 0.075,-0.097 0.04,-0.158 -0.042,-0.057 -0.144,-0.161 -0.144,-0.161 l -0.114,-0.171 c 0,0 -0.074,-0.148 -0.032,-0.156 0.032,-0.002 0.222,-0.051 0.222,-0.051 0,0 -0.116,-0.238 -0.015,-0.164 0.106,0.08 0.167,0.156 0.167,0.156 0,0 0.08,-0.082 0.198,0.008 0.114,0.089 0.123,0.011 0.114,0.089 -0.009,0.076 -0.173,0.11 -0.234,0.133 -0.068,0.021 -0.027,0.139 -0.027,0.139 v 0.049 c 0,0 -0.04,-0.023 0.006,0.032 0.044,0.051 0.116,-0.019 0.082,0.123 -0.038,0.148 -0.061,0.213 -0.061,0.241 0,0.034 0.205,0.059 0.205,0.059 0,0 0.075,-0.059 0.096,-0.086 0.017,-0.021 0.035,-0.072 0.039,-0.095 0.005,-0.015 0.29,-0.082 0.29,-0.082 l 0.203,-0.057 -0.179,0.222 c 0,0 0.07,0.021 -0.027,0.061 -0.104,0.038 -0.16,0.074 -0.219,0.074 -0.055,0 0.017,-0.074 -0.081,-0.004 -0.1,0.065 -0.226,-0.017 -0.214,0.072 0.006,0.091 0.027,0.112 0.027,0.112 0,0 0.118,-0.032 0.144,-0.038 0.03,-0.008 -0.033,-0.133 0.113,-0.057 0.139,0.063 0.139,0.063 0.139,0.063 l 0.36,-0.106 0.132,0.122 c 0,0 0.095,0.055 0.06,0.104 -0.044,0.053 -0.1,0.148 -0.122,0.167 -0.019,0.017 -0.123,-0.063 -0.133,-0.084 -0.004,-0.021 0.026,-0.074 -0.013,-0.082 -0.04,-0.004 -0.081,0.01 -0.106,0.027 -0.027,0.021 -0.073,0.048 -0.073,0.063 0,0.017 0.014,-0.008 -0.011,0.048 -0.026,0.055 0,0.04 -0.026,0.089 -0.025,0.051 -0.019,0.152 -0.017,0.186 0.01,0.032 0.01,0.032 0.01,0.032 l 0.223,-0.072 0.184,-0.099 c 0,0 0.051,-0.205 0.134,-0.086 0.079,0.127 0.051,0.226 0.032,0.234 -0.02,0.011 -0.249,0.114 -0.249,0.114 0,0 -0.016,0.008 -0.058,0.07 -0.049,0.068 -0.042,0.194 -0.042,0.194 0,0 0.512,0.103 0.548,0.004 0.029,-0.099 0,-0.093 0.029,-0.099 0.035,-0.004 0.188,-0.103 0.188,-0.103 0,0 0.061,-0.089 0.063,-0.169 0,-0.072 0.073,-0.232 0.226,-0.11 0.157,0.12 0.157,0.112 0.2,0.152 0.046,0.042 0.087,0.118 0.087,0.118 0,0 0.269,0.091 0.269,-0.089 0,-0.177 0.161,-0.158 -0.058,-0.287 -0.221,-0.135 -0.335,-0.209 -0.335,-0.209 0,0 -0.025,-0.08 0,-0.097 0.021,-0.019 0.214,0.067 0.245,-0.076 0.034,-0.144 0.067,-0.287 0.075,-0.321 0.009,-0.04 0.192,-0.106 0.192,-0.106 0,0 0.157,0.044 0.168,-0.099 0.014,-0.139 0.012,-0.222 -0.045,-0.274 -0.046,-0.063 -0.122,-0.154 -0.138,-0.224 -0.016,-0.068 -0.044,-0.011 -0.016,-0.144 0.021,-0.127 0.011,-0.289 -0.056,-0.327 -0.073,-0.042 -0.21,-0.025 -0.21,-0.025 0,0 -0.104,-0.03 -0.193,-0.008 -0.088,0.021 -0.16,0.029 -0.218,0.029 -0.052,0 -0.058,-0.2 -0.156,-0.323 -0.099,-0.12 0.034,-0.638 -0.027,-0.669 -0.058,-0.023 -0.262,-0.15 -0.285,-0.158 -0.017,-0.017 0.088,-0.091 0.176,-0.078 0.092,0.013 0.422,-0.16 0.017,-0.304 -0.406,-0.148 -0.333,-0.148 -0.501,-0.346 -0.17,-0.209 -0.378,-0.587 -0.378,-0.587 0,0 -0.185,-0.095 -0.125,-0.253 0.063,-0.156 -0.043,-0.036 -0.051,0.087 -0.009,0.118 0.118,0.325 0.118,0.352 0,0.038 0.025,-0.101 0.035,0.146 0.016,0.255 0.007,0.319 -0.128,0.38 -0.125,0.068 -0.355,0.116 -0.355,0.116 0,0 -0.181,-0.272 -0.181,-0.293 0,-0.019 -0.086,-0.253 -0.086,-0.253 0,0 0.012,-0.289 -0.128,-0.131 -0.142,0.159 -0.142,0.272 -0.142,0.283 0,0.021 -0.109,0.114 -0.148,0.021 -0.039,-0.091 -0.115,-0.188 -0.139,-0.203 -0.026,-0.015 -0.092,0.015 -0.135,-0.055 -0.033,-0.072 0.057,-0.047 -0.037,-0.234 -0.095,-0.19 -0.291,-0.15 -0.291,-0.15 l -0.072,-0.061 c 0,0 -0.006,-0.025 -0.006,-0.04 0,-0.017 0.152,-0.055 0.212,-0.017 0.064,0.036 0.233,0.074 0.273,0.105 0.041,0.03 0.204,-0.048 0.285,-0.01 0.087,0.04 0.033,0.023 0.195,0.065 0.161,0.044 0.301,0.07 0.407,0.156 0.111,0.095 0.508,0.047 0.107,-0.12 -0.399,-0.171 -0.799,-0.336 -0.799,-0.336 0,0 0.201,-0.009 0.226,-0.173 0.02,-0.173 -0.148,-0.304 -0.148,-0.304 l -0.206,-0.243 c 0,0 0.328,-0.036 0.409,0.059 0.075,0.095 -0.056,-0.099 0.075,0.095 0.133,0.184 0.032,0.201 0.19,0.224 0.156,0.027 0.16,0.186 0.217,0.013 0.061,-0.177 0.179,-0.207 0.101,-0.274 -0.078,-0.057 -0.078,-0.296 -0.095,-0.304 -0.02,-0.008 -0.196,-0.086 -0.196,-0.086 l -0.2,-0.101 c 0,0 -0.292,-0.144 -0.275,-0.152 0.022,-0.011 0.703,-0.173 0.27,-0.177 -0.426,-0.004 -0.543,-0.131 -0.602,-0.044 -0.058,0.072 -0.048,0.281 -0.048,0.281 0,0 0.262,0.173 0.151,0.19 -0.101,0.008 -0.139,-0.013 -0.268,-0.072 -0.129,-0.063 -0.346,-0.192 -0.375,-0.181 -0.027,0.004 -0.099,0.118 -0.113,0.148 -0.015,0.034 0.092,0.135 -0.015,0.135 -0.105,0 -0.268,-0.194 -0.268,-0.194 0,0 -0.273,-0.068 -0.262,0.029 0.005,0.095 -0.034,0.266 -0.056,0.289 -0.02,0.027 -0.34,-0.036 -0.34,-0.063 0,-0.023 -0.279,-0.289 -0.279,-0.289 0,0 -0.174,0.114 -0.174,0.165 -0.002,0.055 0.123,0.112 0.12,0.277 0,0.167 0.085,0.118 0.014,0.313 -0.073,0.182 -0.073,0.182 -0.073,0.182 l -0.965,-0.834 -0.403,-0.325 c 0,0 -0.065,-0.063 0.04,-0.139 0.107,-0.082 0.047,-0.025 0.155,-0.104 0.116,-0.084 0.023,-0.164 0.116,-0.084 0.092,0.084 0.014,0.038 0.092,0.084 0.076,0.051 -0.033,-0.017 0.1,0.097 0.137,0.12 0.362,0.12 0.362,0.12 h 0.118 c 0,0 0.194,0.04 -0.078,-0.091 -0.271,-0.127 -0.355,-0.266 -0.402,-0.287 -0.041,-0.027 -0.156,-0.08 -0.156,-0.08 0,0 -0.245,-0.017 -0.234,-0.027 0.016,-0.019 0.11,-0.144 0.312,-0.104 0.202,0.049 0.374,0.068 0.385,0.114 0.005,0.004 0.005,0.004 0.005,0.008 0,-0.004 0.017,0.006 0.079,0.067 0.122,0.135 0.19,0.129 0.25,0.251 0.062,0.125 0.184,0.188 0.184,0.188 0,0 0.043,-0.144 0.14,-0.055 0.095,0.097 0.09,-0.114 0.19,-0.068 0.094,0.044 0.14,0.108 0.14,0.108 0,0 0.1,0.015 0.143,-0.04 0.045,-0.049 0.047,-0.106 0.09,-0.106 0.035,0 0.91,0.422 0.107,-0.086 -0.798,-0.511 -0.846,-0.422 -0.846,-0.572 0,-0.144 0.02,0.027 0.02,0.027 l 0.139,-0.03 c 0,0 0.067,-0.015 0.095,-0.097 0.03,-0.087 0.266,-0.19 0.033,-0.173 -0.235,0.008 -0.408,0.055 -0.408,0.055 l -0.366,-0.275 c 0,0 -0.179,-0.175 -0.286,-0.12 -0.106,0.051 -0.195,0.008 -0.19,0.131 0.015,0.127 0.015,0.106 0.015,0.127 0,0.019 0.08,0.15 0.064,0.15 -0.024,0 -0.222,-0.131 -0.234,-0.152 -0.012,-0.019 -0.227,0.027 -0.227,0.027 l -0.075,-0.158 c 0,0 0.44,-0.101 0.141,-0.108 -0.298,-0.004 -0.354,-0.008 -0.387,-0.008 -0.041,0 -0.124,-0.015 -0.144,-0.021 -0.022,-0.008 -0.061,-0.156 -0.061,-0.156 0,0 0.39,-0.125 0.239,-0.139 -0.155,-0.011 -0.397,0.122 -0.417,0.129 -0.018,0.011 -0.146,0.089 -0.202,0.051 -0.056,-0.034 -0.193,-0.049 -0.093,-0.078 0.107,-0.032 0.272,-0.129 0.272,-0.152 0,-0.023 0.38,-0.095 0.032,-0.063 -0.35,0.036 -0.311,0.021 -0.386,0.074 -0.085,0.061 -0.216,0.106 -0.254,0.129 -0.034,0.023 -0.051,0.082 0.021,0.139 0.067,0.059 0.179,0.232 0.139,0.239 -0.023,0.002 -0.13,-0.03 -0.154,-0.034 -0.029,-0.006 -1.071,-0.764 -1.125,-0.809 -0.049,-0.057 -0.014,0.04 0.431,-0.057 0.442,-0.093 0.442,-0.093 0.442,-0.093 0,0 0.284,-0.019 0.307,-0.006 0.02,0.017 0.243,0.078 0.173,0.116 -0.074,0.032 -0.296,0.036 -0.367,0.089 -0.074,0.059 -0.101,0.116 -0.113,0.144 -0.002,0.032 -0.131,0.188 0.108,0.106 0.232,-0.086 0.311,-0.11 0.311,-0.11 0,0 -0.004,-0.11 0.09,-0.068 0.1,0.044 0.315,0.061 0.319,0.025 0.011,-0.042 0.011,-0.114 0.011,-0.114 l -0.124,-0.11 c 0,0 -0.011,-0.084 -0.139,-0.12 -0.12,-0.027 -0.605,-0.116 -0.272,-0.104 0.328,0.017 0.254,-0.089 0.635,0.038 0.385,0.125 0.818,0.16 0.818,0.16 0,0 0.355,0.065 0.315,0.158 -0.039,0.099 0.029,0.215 -0.228,0.133 -0.26,-0.076 -0.368,-0.156 -0.44,-0.163 -0.072,-0.002 -0.241,0.051 -0.241,0.051 0,0 0.214,0.078 0.255,0.08 0.049,0.006 0.238,0.047 0.339,0.095 0.11,0.051 0.182,0.059 0.182,0.108 0,0.046 0,0.12 0,0.12 0,0 0.229,0.019 0.272,0.036 0.043,0.025 0.09,0.025 0.152,0.063 0.055,0.036 0.123,0.044 0.17,0.072 0.053,0.03 0.108,0.072 0.131,0.116 0.028,0.051 0.089,0.087 0.111,0.11 0.015,0.017 0.1,0.057 0.1,0.057 0,0 0.106,-0.017 0.129,-0.025 0.029,-0.006 0.234,-0.036 0.234,-0.036 0,0 0.005,-0.154 0.005,-0.167 0,-0.013 0.052,-0.264 -0.091,-0.336 -0.136,-0.07 -0.287,-0.099 -0.339,-0.12 -0.039,-0.021 -0.328,-0.232 -0.328,-0.232 0,0 3.322,1.028 3.392,1.11 0.063,0.082 0.071,0.23 0.071,0.251 0,0.019 -0.025,0.03 0.046,0.18 0.08,0.139 0.129,0.171 0.185,0.279 0.051,0.103 0.062,0.2 0.179,0.382 0.112,0.19 0.172,0.251 0.133,0.378 -0.04,0.12 -0.04,-0.312 -0.095,0.247 -0.057,0.56 -0.07,0.521 -0.057,0.576 0.013,0.057 0.013,0.089 0.013,0.089 0,0 0.167,0.118 0.173,-0.011 0,-0.129 0,-0.105 -0.008,-0.224 -0.008,-0.118 -0.046,-0.114 0.068,-0.414 0.12,-0.302 0.047,-0.19 0.075,-0.346 0.029,-0.167 0.093,-0.137 -0.056,-0.291 -0.152,-0.148 -0.075,-0.108 -0.152,-0.234 -0.076,-0.116 -0.468,-0.631 -0.357,-0.857 0,0 1.298,0.574 1.424,0.714 0.123,0.139 0.352,0.367 0.396,0.439 0.044,0.078 1.071,1.037 1.519,1.03 l 0.022,-0.065 c 0,0 -0.224,-0.114 -0.502,-0.317 -0.277,-0.198 -0.262,-0.283 -0.38,-0.376 -0.128,-0.095 -0.51,-0.764 -0.848,-0.916 -0.335,-0.148 -0.936,-0.496 -1.102,-0.57 -0.172,-0.082 -0.84,-0.317 -0.967,-0.363 l 0.077,-0.093 -0.139,-0.057 c 0,0 -0.041,-0.093 -0.041,-0.108 0,-0.011 0.023,-0.101 0.023,-0.101 l 0.067,-0.061 c 0,0 0.039,-0.063 0.039,-0.076 0,-0.019 -0.007,-0.148 -0.045,-0.148 -0.039,0 -0.154,-0.019 -0.154,-0.019 0,0 -0.102,-0.032 -0.146,-0.085 -0.057,-0.055 -0.1,-0.11 -0.1,-0.11 l 0.19,0.023 -0.018,-0.12 0.374,0.067 c 0,0 0.196,0.013 0.2,0.04 0.006,0.032 0.157,-0.076 0.157,-0.076 0,0 -0.079,-0.061 -0.107,-0.07 -0.016,-0.011 -0.04,-0.074 0.067,-0.017 0.102,0.061 0.225,0.08 0.246,0.095 0.021,0.011 -0.07,0.011 0.055,0.032 0.122,0.021 0.178,0.025 0.178,0.025 0,0 0.195,-0.057 0.171,-0.072 -0.026,-0.017 -0.026,-0.114 -0.224,-0.114 -0.204,-0.002 -0.202,-0.015 -0.244,-0.036 -0.043,-0.019 -0.065,-0.106 -0.065,-0.106 0,0 -0.129,0.061 -0.129,0.034 0.004,-0.025 0.068,-0.16 0.068,-0.16 l 0.152,-0.03 c -0.131,0 -0.164,-0.093 -0.287,-0.068 -0.126,0.023 -0.201,0.076 -0.229,0.08 -0.027,0 -0.137,-0.108 -0.137,-0.108 0,0 0.145,-0.084 0.127,-0.089 -0.022,-0.008 -0.196,-0.082 -0.217,-0.082 -0.013,0 -0.156,-0.019 -0.156,-0.019 0,0 -0.165,-0.042 -0.197,-0.053 -0.032,-0.011 0.025,-0.154 0.025,-0.154 0,0 0.412,-0.021 0.438,0.034 0.025,0.061 0.152,0.184 0.179,0.194 0.027,0.011 -0.027,-0.011 0.203,0.011 0.227,0.019 0.186,-0.006 0.227,0.019 0.035,0.027 0.118,0.108 0.146,0.135 0.021,0.021 0.072,0.063 0.212,0.177 0.145,0.112 0.183,0.101 0.229,0.16 0.042,0.057 0.102,0.032 0.178,0.156 0.079,0.12 0.202,0.207 0.262,0.27 0.068,0.057 -0.082,-0.11 0.1,0.105 0.189,0.213 0.189,0.213 0.189,0.213 l -0.042,0.065 c 0,0 0.078,0.089 0.099,0.112 0.026,0.021 0.022,0.076 0.017,0.095 -0.008,0.013 0.133,0.106 0.133,0.106 0,0 0.225,0.006 0.263,0.006 0.04,0 0.23,0.032 0.23,0.032 0,0 0.228,-0.038 0.228,0.095 0,0.133 -0.167,0.232 -0.167,0.232 -0.034,0.017 0.005,0.175 0.005,0.175 l 0.324,0.059 0.163,0.156 c 0,0 -0.02,-0.051 0.724,0.31 0.748,0.361 0.788,0.393 0.788,0.393 0,0 0.023,0.055 0.023,0.072 0,0.015 0.01,0.053 0.01,0.053 l 0.187,0.021 0.108,0.12 -0.208,0.07 c 0,0 -0.003,-0.017 -0.024,-0.021 -0.017,0 -0.108,0.082 -0.188,0.082 -0.086,0 -0.362,-0.133 -0.362,-0.133 0,0 -0.136,0.055 -0.151,0.076 -0.014,0.021 -0.067,0.07 -0.092,0.131 -0.029,0.068 -0.041,0.142 -0.029,0.182 0.014,0.036 0.117,0.091 0.111,0.131 0,0.036 0.073,0.19 0.073,0.19 0,0 0.101,0.051 0.123,0.051 0.029,0 0.249,-0.076 0.252,-0.089 0.01,-0.015 -0.045,-0.114 -0.067,-0.123 -0.023,-0.006 -0.107,-0.144 -0.107,-0.144 l 0.339,-0.133 c 0,0 0.113,-0.053 0.155,-0.053 0.043,0 0.118,0.006 0.141,0.006 0.022,0 -0.007,0.11 -0.007,0.11 -0.081,0.179 -0.12,0.256 -0.12,0.256 0,0 -0.002,-0.027 -0.005,0.048 0,0.07 -0.148,0.201 -0.148,0.201 l -0.284,-0.021 c 0,0 -0.061,0.051 -0.115,0.104 -0.056,0.053 0.033,0.008 -0.107,0.086 -0.139,0.078 -0.126,0.087 -0.139,0.123 -0.012,0.038 -0.126,0.19 0.101,0.262 0.228,0.074 0.393,-0.053 0.563,-0.044 0.166,0.013 0.154,-0.078 0.166,0.013 0.014,0.087 -0.127,0.3 0.091,0.061 0.217,-0.236 0.301,-0.296 0.301,-0.296 0,0 0.196,-0.053 0.192,-0.173 -0.008,-0.118 0.036,-0.219 -0.008,-0.245 -0.034,-0.021 -0.088,-0.188 -0.088,-0.205 0,-0.01 0.056,-0.167 0.026,-0.198 -0.021,-0.032 0.07,-0.017 -0.051,-0.15 -0.112,-0.133 -0.249,-0.22 -0.136,-0.22 0.109,-0.01 0.172,0.034 0.284,0.139 0.099,0.108 0.155,0.122 0.177,0.144 0.013,0.015 0.018,0.015 0.033,0.034 0.197,0.179 0.266,0.228 0.274,0.26 0.005,0.03 0.011,-0.013 0.022,0.072 0.011,0.087 0.072,0.017 0.011,0.116 -0.072,0.097 -0.307,0.409 -0.307,0.409 l 0.035,0.116 c 0,0 0.027,-0.04 0.08,0.061 0.053,0.106 -0.097,0.217 -0.097,0.217 0,0 0.049,-0.019 -0.078,0.072 -0.134,0.097 0.292,0.019 -0.134,0.097 -0.424,0.078 -0.377,0.091 -0.377,0.131 0,0.04 0.02,0.046 0.053,0.093 0.027,0.042 0.094,0.072 0.133,0.127 0.04,0.063 0.163,0.137 0.163,0.137 0.058,0.032 0.416,-0.112 0.405,-0.192 -0.015,-0.082 -0.351,-0.146 -0.008,-0.217 0.334,-0.072 0.315,-0.072 0.334,-0.072 0.017,0 0.164,0.059 0.164,-0.036 0,-0.095 0.07,-0.148 0.06,-0.243 -0.013,-0.097 -0.019,-0.247 -0.013,-0.266 0.006,-0.013 0.29,0.118 0.196,-0.101 -0.089,-0.226 -0.079,-0.256 -0.1,-0.355 -0.024,-0.097 0.083,-0.215 0.083,-0.234 0.011,-0.021 0.353,0.017 -0.108,-0.156 -0.458,-0.179 -0.56,-0.234 -0.585,-0.251 -0.014,-0.013 0.159,-0.266 0.29,-0.167 0.139,0.091 0.597,0.405 0.68,0.477 0.083,0.065 0.12,-0.198 0.258,0.152 0.139,0.34 0.17,0.304 0.139,0.34 -0.032,0.04 -0.15,0.091 -0.178,0.114 -0.036,0.026 0.135,-0.078 -0.036,0.026 -0.171,0.095 -0.071,-0.017 -0.171,0.131 -0.101,0.148 -0.137,0.268 -0.152,0.291 -0.012,0.021 -0.052,0.006 -0.049,0.122 0.012,0.123 0.079,0.188 0.221,0.264 0.144,0.072 0.164,0.097 0.158,0.112 0,0.019 -0.07,0.15 -0.067,0.251 0.006,0.101 -0.003,0.167 0.067,0.26 0.068,0.093 0.164,0.08 0.275,0.082 0.118,0.01 0.095,-0.093 0.241,0.051 0.15,0.139 0.15,0.125 0.195,0.114 0.043,-0.002 0.233,0.013 0.144,-0.106 -0.09,-0.12 -0.112,-0.228 -0.112,-0.228 0,0 0.13,-0.025 0.166,0.076 0.041,0.103 0.388,0.091 0.388,0.091 0,0 0.083,-0.156 0.038,-0.209 -0.048,-0.055 0.094,-0.125 0.094,-0.125 0,0 0.163,0.099 0.152,-0.055 -0.013,-0.15 0.066,-0.175 -0.056,-0.243 -0.123,-0.072 -0.2,-0.108 -0.2,-0.108 l -0.091,-0.198 c 0,0 0.266,-0.22 0.301,-0.106 0.033,0.114 0.125,0.173 0.135,0.293 0.004,0.122 0.262,0.287 0.262,0.287 0,0 0.027,0.006 0.039,0.074 0.012,0.063 0.039,0.099 0.017,0.144 -0.028,0.049 -0.051,-0.004 -0.123,0.093 -0.074,0.095 -0.013,0 -0.074,0.095 -0.057,0.091 -0.057,0.105 -0.057,0.127 0,0.027 -0.002,0.182 -0.002,0.182 l 0.242,0.127 c 0,0 0.021,-0.019 0.123,0.036 0.102,0.055 0.029,0.027 0.102,0.055 0.078,0.03 0.151,0.095 0.275,0.095 0.123,0.002 0.306,-0.034 0.328,-0.048 0.029,-0.011 0.012,-0.131 -0.06,-0.156 -0.072,-0.019 -0.353,-0.066 -0.353,-0.066 l -0.225,-0.196 c 0,0 0.113,-0.156 0.113,-0.175 0,-0.017 0.018,-0.321 0.151,-0.247 0.139,0.067 0.248,0.086 0.248,0.086 0,0 0.088,-0.122 0.088,-0.139 0,-0.025 0.184,-0.355 0.077,-0.42 -0.116,-0.072 -0.15,-0.131 -0.188,-0.139 -0.026,-0.008 0.113,-0.232 0.113,-0.232 0,0 0.377,0.234 0.248,0.008 -0.128,-0.224 -0.011,-0.22 -0.165,-0.296 -0.159,-0.072 -0.247,-0.137 -0.252,-0.154 -0.003,-0.017 -0.13,-0.061 -0.051,-0.175 0.08,-0.108 0.1,-0.141 0.08,-0.163 -0.02,-0.034 -0.327,-0.219 -0.327,-0.219 0,0 -0.68,-0.129 -0.702,-0.129 -0.02,-0.004 -0.308,0.116 -0.346,0.141 -0.036,0.027 -0.07,-0.234 -0.017,-0.264 0.053,-0.032 0.45,-0.371 0.514,-0.331 0.065,0.04 0.365,0.179 0.365,0.196 0,0.008 0.294,0.099 0.315,0.089 0.028,-0.002 0.196,-0.099 0.196,-0.099 0,0 0.041,-0.262 0.105,-0.091 0.067,0.175 0.047,0.084 0.072,0.228 0.022,0.144 0.358,0.068 0.363,0.034 0,-0.034 0.273,-0.171 0.298,-0.11 0.008,0.063 0.021,0.167 -0.079,0.302 -0.101,0.125 -0.079,0.116 -0.124,0.192 -0.039,0.076 -0.1,0.211 -0.09,0.243 0.011,0.025 0.246,0.042 0.266,0.055 0.02,0.004 -0.085,0.175 -0.107,0.192 -0.019,0.017 -0.085,0.103 -0.085,0.12 0,0.017 0.344,0.004 0.348,-0.099 0,-0.112 0.09,-0.279 0.09,-0.279 0,0 0.11,-0.042 0.142,0.049 0.025,0.095 0.058,0.16 0.086,0.192 0.012,0.013 0.014,0.013 0.02,0.019 v 0.294 c -0.107,-0.036 -0.297,-0.116 -0.432,-0.04 -0.134,0.078 -0.088,0.099 -0.154,0.207 -0.073,0.112 -0.089,0.179 -0.098,0.203 -0.008,0.025 -0.07,-0.03 -0.109,0.057 -0.045,0.082 -0.014,0.186 -0.014,0.186 0,0 -0.042,0.008 0,0.048 0.036,0.03 0.271,0.175 0.309,0.197 0.036,0.034 0.391,-0.085 0.301,0.103 -0.089,0.186 -0.132,0.276 -0.15,0.304 -0.025,0.038 -0.115,0.133 -0.151,0.173 -0.038,0.032 0.173,0.298 0.173,0.298 0,0 0.188,-0.019 0.226,0.053 0.037,0.063 0.095,0.093 0.098,0.139 v 0.038 c -0.003,0.015 -0.003,0.029 0,0.042 V 670.6 h -18.139 c -0.342,-0.135 -0.69,-0.222 -1.036,-0.245 -2.76,-0.179 -2.832,-0.591 -3.516,-0.572 -0.681,0.017 -0.687,0.192 -1.293,-0.203 -0.61,-0.39 -1.056,-0.526 -1.152,-0.697 -0.094,-0.177 -0.49,-0.349 -0.707,-0.777 -0.223,-0.418 -0.76,-1.37 -0.975,-1.653 -0.209,-0.285 -0.884,-1.518 -0.884,-1.518 0,0 -0.408,-2.886 -0.357,-3.08 0,0 0.12,-0.16 0.167,-0.074 0.044,0.078 0.017,0.131 0.089,0.131 0.083,0 0.051,0.021 0.141,-0.009 0.091,-0.019 0.15,-0.093 0.15,-0.093 l 0.1,-0.044 c 0,0 -0.073,-0.049 -0.09,-0.063 -0.017,-0.017 -0.066,-0.108 -0.066,-0.108 l 0.195,-0.068 c 0,0 0.117,-0.135 0.094,-0.135 -0.029,-0.011 -0.196,0.027 -0.196,0.027 0,0 -0.163,0.013 -0.167,0 -0.004,-0.013 -0.161,-0.103 -0.161,-0.082 0,0.021 0.135,0.133 0.123,0.148 0,0.015 -0.106,0.097 -0.106,0.097 0,0 -0.173,0.025 -0.188,0.025 -0.018,0 -0.157,-0.099 -0.157,-0.099 z m 13.24,-5.239 c 0,0 -0.04,-0.067 0,-0.106 0.042,-0.027 -0.056,-0.41 0.453,-0.15 0,0 0.457,0.395 0.904,0.792 -0.031,0.004 -0.061,0.013 -0.099,0.034 -0.228,0.114 -0.38,0.078 -0.38,0.015 -0.005,-0.057 -0.057,-0.224 -0.113,-0.237 -0.049,-0.013 -0.331,0.013 -0.349,0.013 -0.023,0 -0.035,-0.008 -0.275,0 -0.24,0 -0.167,0.089 -0.195,0.097 -0.022,0.008 -0.122,-0.175 -0.099,-0.213 0.018,-0.036 0.06,-0.131 0.188,-0.086 0.129,0.044 0.283,0.12 0.307,0.099 0.029,-0.027 0.04,-0.175 0.04,-0.175 z m -35.241,4.01 c 0.042,-0.065 0.213,-0.053 0.213,-0.053 l 0.059,0.342 c 0,0 0.271,-0.063 0.096,0.179 -0.174,0.251 -0.478,0.323 -0.504,0.253 -0.033,-0.061 -0.022,-0.167 -0.078,-0.167 -0.053,0 -0.172,0.087 -0.152,0.173 0.024,0.089 0.024,0.129 0.024,0.129 0,0 0.058,0.006 0,0.059 -0.067,0.061 0.586,-0.205 0.257,0.078 -0.297,0.249 -0.497,0.35 -0.569,0.426 -0.017,-0.076 -0.049,-0.165 -0.112,-0.192 -0.139,-0.078 -0.211,-0.313 -0.211,-0.313 0,0 0.932,-0.84 0.977,-0.914 z m -11.886,-18.797 c -0.04,-0.034 -0.43,-0.486 -0.43,-0.486 0,0 0.49,-0.114 0.619,0.106 0.126,0.211 0.489,0.369 0.489,0.369 0,0 0.173,-0.3 0.438,-0.116 0.267,0.171 0.267,0.065 0.267,0.171 0,0.112 -0.73,0.475 -0.73,0.475 l 0.072,0.118 c 0,0 1.367,-0.807 1.391,-0.908 0.026,-0.104 0.206,-0.241 0.146,0.095 -0.055,0.331 -0.107,0.37 -0.107,0.37 0,0 -0.152,0.247 0.144,0.137 0.304,-0.108 0.564,-0.275 0.564,-0.275 0,0 0.161,0.099 0.161,0.197 -0.004,0.091 0.543,0.002 -0.083,0.122 -0.619,0.12 -0.674,0.093 -0.758,0.116 -0.085,0.038 -0.151,-0.116 -0.281,0.104 -0.128,0.226 0.091,0.26 0.151,0.26 0.049,0 0.574,-0.021 0.574,-0.021 0.036,0.006 0.397,0.213 0.397,0.213 0,0 -0.32,0.256 -0.437,0.173 -0.02,0.044 -0.088,0.131 -0.232,0.279 -0.564,0.566 -0.273,0.471 -0.614,0.657 -0.345,0.179 -0.313,0.139 -0.36,0.296 -0.041,0.156 -0.007,0.198 0.054,0.458 0.061,0.264 0.136,0.327 0.136,0.327 l 0.085,-0.034 c 0,0 -0.103,-0.281 -0.135,-0.494 -0.033,-0.205 -0.139,-0.16 0.285,-0.437 0.42,-0.272 0.632,-0.621 0.632,-0.621 0,0 0.148,-0.344 0.298,-0.228 0.146,0.112 -0.122,0.023 0.146,0.112 0.267,0.087 0.222,0.057 0.267,0.087 0.044,0.029 0.557,0.224 0.491,0.135 -0.062,-0.101 -0.211,-0.283 -0.211,-0.283 l -0.113,-0.213 c 0,0 0.224,-0.017 0.224,-0.186 0,-0.163 -0.045,-0.226 -0.045,-0.226 l 0.095,-0.076 c 0,0 0.141,-0.294 0.151,-0.334 0.006,-0.044 0.329,-0.184 0.363,-0.184 0.031,0 0.267,0.275 0.267,0.275 l -0.413,0.219 -0.136,0.158 c 0,0 0.254,0.078 0.265,0.114 0.008,0.047 0.221,0.317 0.221,0.317 l -0.212,-0.042 c 0,0 -0.538,0.063 -0.538,0.099 0,0.042 0.207,0.177 0.279,0.177 0.068,0 0.491,0.006 0.491,0.006 l 0.608,-0.118 c 0,0 0.48,0.171 0.053,0.296 -0.426,0.12 -0.739,-0.055 -0.984,0.093 -0.249,0.154 -0.207,0.135 -0.249,0.154 -0.041,0.011 0.051,0.099 -0.281,0.152 -0.329,0.055 -0.459,0.085 -0.544,0.156 -0.088,0.07 -0.475,0.414 -0.475,0.414 0,0 0.042,-0.038 -0.023,0.097 -0.067,0.137 -0.035,0.186 -0.035,0.186 0,0 0.172,-0.186 0.217,-0.192 0.041,-0.004 0.484,-0.167 0.484,-0.167 l 0.319,0.044 -0.15,0.2 0.094,0.205 c 0,0 0.073,-0.019 0.105,0.01 0.031,0.023 0.107,0.224 0.107,0.224 l 0.502,-0.007 c 0,0 0.139,-0.042 0.083,-0.072 -0.051,-0.032 -0.146,-0.074 -0.206,-0.074 -0.051,0 -0.221,-0.11 -0.221,-0.11 l 0.163,-0.251 c 0,0 0.335,0.008 0.352,0.065 0.023,0.051 -0.104,-0.002 0.023,0.051 0.128,0.059 0.566,0.061 0.566,0.061 l 0.275,0.036 c 0,0 0.5,-0.22 0.429,-0.353 -0.077,-0.133 -0.149,-0.374 -0.216,-0.399 -0.062,-0.023 0.273,-0.458 0.453,-0.401 0.184,0.053 0.168,0.013 0.217,0.099 0.05,0.074 0.13,0.545 0.13,0.545 l -0.289,0.224 0.483,-0.238 c 0,0 -0.027,-0.104 0.056,0.006 0.083,0.118 0.061,0.066 0.118,0.177 0.051,0.108 0.428,0.042 0.167,0.281 -0.263,0.237 -0.301,-0.029 -0.344,-0.042 -0.04,-0.017 -0.237,0.27 -0.171,0.291 0.063,0.027 0.482,-0.027 0.554,-0.036 0.076,-0.013 0.202,-0.399 0.419,-0.243 0.223,0.169 0.267,0.405 0.212,0.405 -0.055,0 -0.226,0.07 -0.376,0.135 -0.152,0.057 -0.049,-0.266 -0.383,0.078 -0.336,0.353 -0.188,0.329 -0.006,0.253 0.182,-0.085 0.848,-0.055 0.848,-0.055 -0.424,0.443 -0.445,0.509 -0.379,0.574 0.062,0.074 -0.385,-0.017 -0.385,-0.017 0,0 0.412,-0.321 -0.021,-0.213 -0.444,0.11 -0.311,0 -0.444,0.11 -0.127,0.108 -0.127,0.108 -0.127,0.108 0,0 -0.128,-0.197 -0.233,-0.04 -0.109,0.156 -0.669,0.298 -0.669,0.298 0,0 0.067,0.194 0.418,0.287 0.353,0.089 0.353,0.089 0.353,0.089 0,0 -0.096,0.22 -0.146,0.239 -0.039,0.015 -0.202,-0.095 -0.202,-0.095 0,0 -0.524,0.019 -0.038,0.146 0.479,0.133 0.644,0.15 0.644,0.15 l -0.139,0.319 c 0,0 0.547,-0.07 0.645,-0.131 0.1,-0.051 -0.029,-0.338 0.311,-0.133 0.341,0.203 0.598,0.175 0.533,0.279 -0.068,0.103 0.123,0.441 0.123,0.481 0,0.034 -0.379,0.188 -0.388,0.112 -0.008,-0.078 0.358,-0.291 0.145,-0.294 -0.211,0 -0.458,-0.171 -0.7,0.061 -0.238,0.228 -0.477,0.228 -0.469,0.163 0.01,-0.065 0.032,-0.355 -0.041,-0.348 -0.077,0.004 -0.436,-0.004 -0.436,-0.004 l -0.25,0.26 c 0,0 0.044,-0.298 -0.191,-0.179 -0.24,0.12 -0.24,0.163 -0.399,0.19 -0.165,0.029 0.02,0.287 -0.22,-0.015 -0.248,-0.306 -0.248,-0.306 -0.248,-0.306 0,0 -0.076,-0.12 -0.205,0.038 -0.129,0.156 0.04,0.293 -0.033,0.287 -0.072,-0.011 -0.446,-0.401 -0.652,-0.346 -0.205,0.055 -1.172,-0.325 -0.655,0.076 0.521,0.401 0.937,0.34 0.65,0.424 -0.29,0.086 0.033,0.049 -0.347,0.051 -0.391,0.008 -0.441,-0.342 -0.638,-0.061 -0.197,0.289 -0.362,0.422 -0.512,0.403 -0.135,-0.013 -0.212,-0.08 -0.212,-0.114 0,-0.032 0.095,-0.116 0.167,-0.146 0.072,-0.034 0.335,-0.053 0.335,-0.19 0,-0.135 0.201,-0.015 0.217,-0.215 0.013,-0.198 -0.105,-0.327 -0.201,-0.327 -0.096,-0.006 -0.021,-0.177 -0.021,-0.177 0,0 0.214,-0.04 0.257,-0.04 0.044,0.002 -0.102,-0.129 0.269,-0.095 0.371,0.034 0.355,-0.042 0.371,0.034 0.019,0.068 0.669,0.036 0.9,0.076 -0.106,-0.093 -0.274,-0.3 -0.274,-0.3 0,0 -0.045,-0.762 -0.089,-0.619 -0.045,0.141 -0.218,0.192 -0.218,-0.065 0.005,-0.255 0.224,-0.545 -0.079,-0.327 -0.303,0.224 -0.23,0.483 -0.23,0.483 0,0 -0.738,-0.511 -0.329,-0.144 0.403,0.365 0.671,0.097 0.648,0.376 -0.021,0.279 -0.067,0.304 -0.067,0.304 0,0 -0.217,0.175 -0.43,0.089 -0.211,-0.085 0.012,-0.108 -0.326,-0.372 -0.344,-0.264 -1.13,-0.887 -1.002,-0.549 0.123,0.342 0.301,0.46 0.345,0.633 0.045,0.18 -0.269,-0.008 -0.269,-0.008 l -0.3,0.087 -0.223,-0.095 0.122,-0.171 c 0,0 0.313,-0.439 0.096,-0.355 -0.219,0.089 -0.398,0.198 -0.458,0.205 -0.068,0.011 -0.151,-0.184 -0.258,-0.253 -0.109,-0.074 -0.256,-0.169 -0.263,-0.021 0,0.156 -0.103,0.325 -0.103,0.35 0,0.026 -0.152,0.015 0.194,0.026 0.341,0.008 0.331,-0.294 0.341,0.008 0.008,0.304 0.058,0.346 0.008,0.336 -0.053,-0.01 -0.343,-0.203 -0.378,-0.203 -0.026,0 -0.499,-0.112 -0.513,-0.011 -0.011,0.104 0.352,0.374 0.352,0.374 l 0.234,0.008 0.515,0.118 c 0,0 0.624,-0.26 0.639,-0.021 0.019,0.243 -0.106,0.325 -0.193,0.3 -0.085,-0.021 -0.071,-0.169 -0.205,-0.152 -0.126,0.015 -0.241,-0.072 -0.438,0.055 -0.19,0.127 0.352,0.226 0.364,0.31 0.011,0.089 -0.139,0.116 -0.139,0.116 0,0 -0.281,-0.021 -0.312,0 -0.036,0.023 -1.034,-0.589 -0.95,-0.336 0.08,0.258 0.715,0.513 0.807,0.591 0.095,0.072 0.341,0.361 0.308,0.471 -0.038,0.116 0.074,0.013 -0.311,-0.26 -0.378,-0.27 -0.906,-0.412 -0.906,-0.412 l 0.687,0.536 -0.605,0.017 -0.106,-0.076 -0.698,-0.108 0.377,-0.228 c 0,0 0.402,-0.135 0.251,-0.312 -0.151,-0.184 -0.318,-0.057 -0.393,0.034 -0.081,0.082 -0.294,0.272 -0.294,0.272 h -0.002 v -0.56 c 0.042,0.072 0.114,0.152 0.114,-0.152 0.006,-0.431 0.008,-0.53 0.008,-0.53 0,0 0.209,-0.621 0.115,-0.405 -0.04,0.108 -0.137,0.217 -0.238,0.31 v -3.42 l 0.506,-0.635 -0.535,-0.201 c 0.082,-0.059 0.15,-0.116 0.128,-0.118 -0.039,-0.006 -0.341,-0.004 -0.497,-0.023 l -0.086,-0.03 c 0.023,-0.059 0.493,-0.382 0.544,-0.363 0.055,0.015 0.237,0.002 0.279,0.015 0.041,0.019 0.631,-0.084 0.586,-0.116 z m -0.168,13.487 c 0.048,-0.01 0.078,-0.023 0.078,-0.023 l -0.078,0.086 z m 0,7.873 c 0.044,0.042 0.05,0.078 0,0.104 z m 0,-0.482 v -0.367 l 0.044,0.013 c 0,0 0.106,0.184 0.148,0.213 0.025,0.015 -0.095,0.089 -0.192,0.141 z m 0,-0.548 v -0.085 c 0.197,0.08 0.376,0.167 0.376,0.167 0,0 -0.129,-0.023 -0.17,-0.023 -0.022,0 -0.111,-0.032 -0.206,-0.059 z m 0.275,-6.288 c -0.114,0.042 -0.197,0.076 -0.276,0.103 v -0.23 c 0.276,-0.012 0.699,-0.025 0.276,0.127 z m -0.786,-14.234 c 0,0.057 -0.603,0.308 -0.603,0.308 0,0 -0.076,0.046 -0.146,0.099 v -0.549 c 0.283,0.038 0.749,0.104 0.749,0.142 z m -16.21,-20.205 4.639,-0.061 v 17.821 h -4.639 z m -6.529,-0.061 4.392,-0.12 v 17.942 h -4.392 z m -6.716,-0.121 4.517,-0.063 v 17.826 h -4.517 z m -6.956,-0.181 4.638,0.118 v 17.948 h -4.638 z m -6.898,-0.064 4.391,0.063 v 18.066 h -4.391 z m -6.773,0 4.274,-0.061 v 18.191 h -4.274 z m -6.776,0 h 4.398 v 18.13 h -4.398 z m -6.959,-0.061 4.397,0.061 v 18.248 h -4.397 z m -6.953,0 4.573,-0.122 v 18.556 h -4.573 z m -34.232,5.411 3.279,0.059 v 15.55 h -3.279 z m -5.481,-0.061 3.633,0.12 v 15.605 h -3.633 z m -5.78,0.061 3.638,0.059 v 15.605 h -3.638 z m -5.538,0 h 3.868 v 15.727 h -3.868 z m -11.165,0.754 2.38,-0.123 v 2.382 h -2.38 z m -0.123,8.791 2.321,-0.063 v 5.31 h -2.321 z m -8.175,-8.913 2.438,-0.122 v 2.443 h -2.438 z m 2.561,8.85 v 5.31 h -2.378 v -5.246 z m -10.809,-25.352 0.354,0.076 v 2.618 l -0.354,-0.139 z m -1.842,-0.211 h 0.987 v 2.624 h -0.987 z m -0.287,24.833 c 1.402,-2.808 3.054,-0.125 3.054,-0.125 v 6.042 h -3.054 z m -2.409,-24.905 h 1.563 v 2.766 h -1.563 z m -2.693,0.143 1.488,-0.144 v 2.838 h -1.488 z m -2.058,0.283 0.996,-0.211 v 2.833 l -0.996,0.218 z m -2.238,16.177 h 2.318 v 2.382 h -2.318 z m -0.063,8.908 h 2.26 v 5.191 h -2.26 z m -8.296,-8.971 2.497,-0.059 v 2.504 h -2.497 z m 0,8.971 2.376,-0.118 v 5.487 h -2.376 z m -11.721,-12.877 2.564,-0.059 v 2.683 h -2.564 z m -0.061,10.073 h 2.566 v 5.8 h -2.566 z m 2.442,12.224 v 5.555 h -2.381 v -5.631 z m -16.042,-24.33 0.461,-0.46 v -1.134 h 0.777 v 1.134 l 0.283,0.498 v 16.375 l -0.781,1.064 -0.74,-1.064 z m -1.949,-0.178 v 16.451 l -0.643,1.06 h -5.882 l -0.569,-0.992 v -16.662 l 0.425,-0.494 v -0.779 l 6.314,-0.074 v 0.853 z m -2.328,24.031 v 5.797 h -2.856 v -5.717 z m 0.982,-71.251 c 0,0 0.35,-0.778 0.564,0.214 v 5.744 l -0.564,-0.285 z m -2.695,-0.778 c 0,0 0.355,-0.708 0.853,0.141 v 6.027 l -0.853,-0.355 z m -3.686,-0.496 c 0,0 0.635,-1.204 1.202,0 v 5.955 l -1.202,-0.211 z m -1.563,48.211 v 16.734 l -0.635,1.06 -0.781,-0.992 v -16.73 l 0.494,-0.568 v -0.779 l 0.641,0.068 v 0.642 z m -2.334,-48.852 c 0,0 0.563,-1.345 1.483,0.072 v 5.745 l -1.483,-0.075 z m -4.611,-0.423 c 0,0 0.921,-1.419 1.63,0.072 v 5.81 l -1.63,-0.211 z m 3.114,47.856 v 0.781 l 0.498,0.707 v 16.732 l -0.639,0.853 h -5.953 l -0.497,-0.921 v -16.806 l 0.422,-0.638 v -0.64 z m -1.826,25.579 v 5.871 h -2.622 v -5.793 z m -6.109,-73.789 c 0,0 0.992,-1.417 1.841,0 v 5.956 l -1.841,-0.07 z m -4.965,0 c 0,0 0.779,-1.417 1.771,-0.141 v 6.097 h -1.771 z m -2.908,49.486 0.494,-0.494 v -0.781 h 5.955 v 0.638 l 0.424,0.851 v 16.804 l -0.353,0.851 h -6.096 l -0.424,-0.99 z m 5.249,24.381 v 7.932 h -3.332 v -7.854 z m -7.305,-73.724 c 0,0 1.066,-1.846 1.775,-0.073 v 5.955 l -1.775,0.073 z m -4.675,0.283 c 0,0 0.848,-1.842 1.696,-0.072 v 5.956 h -1.696 z m -2.414,49.275 0.355,-0.636 v -0.785 l 6.309,-0.139 v 0.851 l 0.427,0.709 v 16.662 l -0.355,0.849 h -6.168 l -0.567,-0.992 v -16.519 z m 4.713,24.005 v 6.034 h -2.696 v -6.034 z m -6.626,-72.998 c 0,0 0.639,-1.63 1.489,0 v 5.956 l -1.489,0.072 z m -1.701,49.135 0.279,-0.709 v -0.992 l 1.139,-0.072 v 0.996 l 0.283,0.703 v 16.379 l -0.779,1.136 -0.922,-1.136 z m -2.273,-48.498 c 0,0 0.424,-1.913 1.352,-0.283 v 6.028 l -1.352,0.215 z m -3.117,0.783 c 0,0 0.357,-1.63 0.923,-0.498 v 6.098 l -0.923,0.355 z m -2.478,0.564 c 0,0 0.352,-1.135 0.496,-0.282 0.138,0.851 0,6.168 0,6.168 l -0.496,0.213 z m -0.924,46.866 v -1.417 h 6.595 v 1.208 l 0.21,0.564 v 16.166 l -0.634,1.206 h -6.101 l -0.354,-0.709 -0.285,-16.096 z m 4.584,24.148 v 5.87 h -2.857 v -5.787 z m -8.485,-23.228 0.355,-1.13 v -1.208 l 0.781,-0.072 v 1.206 l 0.352,1.204 v 16.168 l -0.637,0.99 h -0.496 l -0.355,-0.779 z m -14.721,1.155 2.683,-0.059 v 2.626 h -2.683 z m -0.12,10.01 2.804,-0.057 v 5.797 h -2.804 z m 2.688,12.224 v 5.709 h -2.617 v -5.47 z m -14.227,-18.385 h 2.503 v 2.443 h -2.503 z m -0.12,9.032 2.807,0.059 v 5.496 h -2.807 z m -5.556,-9.032 v 2.377 h -2.441 v -2.318 z m -0.123,8.971 v 5.19 h -2.259 v -5.19 z m -2.631,-25.458 0.71,0.072 v 2.907 l -0.71,-0.357 z m -2.337,-0.283 1.346,0.067 v 2.77 h -1.346 z m -2.981,0 h 1.56 v 2.905 h -1.56 z m -1.987,0.067 h 0.924 v 2.911 h -0.924 z m -1.49,0.357 0.571,-0.142 v 2.766 l -0.571,0.213 z m -1.266,23.488 c 1.523,-2.077 3.169,-0.125 3.169,-0.125 v 7.142 h -3.169 z m -9.705,-7.142 2.439,-0.125 v 2.2 h -2.439 z m 0,8.912 2.439,-0.065 v 5.249 h -2.439 z m -8.18,-8.912 2.44,-0.125 v 2.257 h -2.44 z m -0.063,8.971 2.324,-0.125 v 5.249 h -2.324 z m -12.572,-10.069 3.846,0.118 v 16.174 h -3.846 z m -5.676,0.182 3.847,-0.12 v 16.232 h -3.847 z m -5.736,-0.064 3.783,-0.057 v 16.17 h -3.783 z m -4.823,0 2.931,-0.057 v 16.354 h -2.931 z m -36.496,-6.04 h 4.698 v 17.821 h -4.698 z m -7.082,-0.123 4.578,0.061 v 18.005 h -4.578 z m -7.138,0.062 h 4.761 v 17.883 h -4.761 z m -6.897,-0.062 h 4.761 v 18.003 h -4.761 z m -7.14,-0.061 h 4.879 v 18.064 h -4.879 z m -6.96,-0.059 4.945,0.059 v 18.064 h -4.945 z m -6.956,0.059 4.821,-0.059 v 18.307 h -4.821 z m -6.835,0 h 4.759 v 18.248 h -4.759 z m -7.264,0.061 4.945,-0.12 v 18.368 h -4.945 z m 436.015,44.926 c 0.168,-0.004 0.365,-0.055 0.382,-0.31 0.029,-0.431 -0.221,-0.422 0.029,-0.431 0.242,0 0.242,0 0.242,0 0,0 0.323,-0.114 0.323,0 0,0.112 0.707,0.129 0.707,0.129 l -0.038,0.401 c 0,0 0.299,-0.067 0.564,-0.167 0.114,-0.076 0.225,-0.148 0.358,-0.211 0.034,-0.04 0.034,-0.086 -0.019,-0.135 -0.264,-0.255 -0.123,-0.348 -0.123,-0.348 -0.126,0.114 -0.274,-0.549 -0.393,-0.374 -0.118,0.173 -0.437,0.834 -0.638,0.583 -0.2,-0.256 0.062,-0.699 0.062,-0.699 0,0 -0.514,-0.019 0.128,-0.095 0.643,-0.076 0.485,-0.327 0.699,-0.105 0.214,0.222 0.348,0.412 0.348,0.469 -0.004,0.065 0.833,-0.097 0.833,-0.097 l -0.184,0.319 0.335,-0.203 c 0,0 0.161,-0.241 0.156,0.03 -0.002,0.266 -0.01,0.287 -0.01,0.308 0,0.023 0.71,-0.374 0.33,0.051 -0.048,0.053 -0.081,0.099 -0.113,0.146 0.179,0.021 0.337,0.072 0.485,0.129 -0.005,-0.03 -0.005,-0.065 -0.017,-0.099 -0.034,-0.078 0.041,-0.272 0.041,-0.272 0,0 0.183,-0.08 0.215,-0.108 0.033,-0.019 0.603,-0.112 0.603,-0.112 0,0 -0.017,-0.156 0.061,-0.004 0.083,0.15 0.238,0.144 0.279,0.114 0.045,-0.034 0.029,-0.386 0.132,-0.154 0.102,0.23 0.315,0.182 0.31,0.241 -0.011,0.07 -0.241,0.209 -0.241,0.209 0,0 0.241,-0.027 0.269,-0.057 0.035,-0.021 0.478,-0.184 0.478,-0.184 0,0 0.29,-0.152 0.018,-0.203 -0.281,-0.051 -0.3,-0.251 -0.256,-0.251 0.038,0 0.305,0.181 0.431,0.241 0.047,-0.002 0.106,-0.011 0.186,-0.015 0.665,-0.063 0.873,-0.274 0.873,-0.274 0,0 0.3,-0.367 0.419,-0.205 0.115,0.169 0.316,0.568 0.316,0.568 0,0 -0.555,-0.203 -0.641,-0.19 -0.085,0.004 0.076,-0.173 -0.085,0.004 -0.161,0.171 -0.168,0.249 -0.227,0.331 -0.066,0.078 -0.302,-0.108 -0.42,0.076 -0.125,0.179 -0.209,0.386 -0.335,0.427 -0.134,0.04 -0.19,-0.241 -0.302,-0.091 -0.108,0.146 -0.151,0.122 -0.073,0.209 0.07,0.072 0.642,0.169 0.669,0.144 0.032,-0.026 0.635,-0.365 0.678,-0.382 0.048,-0.019 0.758,-0.416 0.758,-0.416 0,0 0.119,-0.186 0.268,-0.061 0.144,0.12 -0.235,0.338 -0.263,0.35 -0.028,0.017 0.705,0.211 0.284,0.3 -0.417,0.086 -0.298,-0.051 -0.417,0.086 -0.118,0.131 -0.043,0.156 -0.043,0.156 0,0 -0.012,0.015 0.039,0.179 0.054,0.173 0.158,0.27 0.158,0.27 0,0 0.345,-0.027 0.431,-0.127 0.088,-0.106 -0.106,-0.336 0.117,-0.152 0.223,0.184 0.165,0.194 0.223,0.184 0.065,-0.002 0.185,0 0.185,-0.042 0,-0.036 0.07,-0.036 0.002,-0.163 -0.064,-0.127 -0.121,-0.277 0.053,-0.393 0.187,-0.125 0.395,-0.448 0.484,-0.156 0.256,0.158 0.068,0.013 0.256,0.158 0.192,0.144 0.242,0.2 0.242,0.2 0.241,-0.327 0.241,-0.327 0.241,-0.327 l -0.761,-0.319 c 0,0 -0.11,-0.097 0.053,-0.245 0.167,-0.15 -0.179,-0.477 -0.257,-0.289 -0.073,0.188 -0.073,0.188 -0.073,0.188 l -0.056,0.015 c 0,0 -0.427,-0.203 -0.393,-0.239 0.031,-0.032 0.031,-0.032 0.031,-0.032 0,0 -0.151,0.141 0.248,-0.156 0.399,-0.298 0.27,-0.182 0.399,-0.298 0.128,-0.12 0.187,-0.207 0.187,-0.207 l 0.083,-0.154 0.082,-0.127 0.646,0.357 -0.153,-0.021 -0.252,-0.036 -0.099,0.232 0.137,0.158 0.161,0.175 c 0,0 -0.217,-0.082 0.072,0.112 0.285,0.192 0.446,0.258 0.396,0.258 -0.058,0 -0.462,0.11 -0.455,0.163 0.014,0.055 0.166,0.137 0.166,0.137 l 0.552,-0.025 c 0,0 -0.064,-0.321 0.101,-0.123 0.15,0.201 0.15,0.201 0.15,0.201 0,0 0.061,-0.264 -0.034,-0.331 -0.099,-0.072 -0.373,-0.247 -0.373,-0.247 v -0.257 c 0,0 0,-0.025 0,-0.066 0.07,0.08 0.183,0.16 0.183,0.16 0,0 0.097,-0.219 0.149,0 0.053,0.224 -0.101,0.256 0.223,0.266 0.321,0.008 0.283,-0.046 0.321,0.008 0.042,0.055 0.424,0.344 0.468,0.367 0.045,0.023 0.644,-0.101 0.448,0.15 -0.196,0.249 0.326,-0.158 0.326,-0.192 0,-0.03 0.141,-0.256 -0.114,-0.258 -0.262,-0.004 -0.452,-0.217 -0.416,-0.323 0.031,-0.101 0.034,-0.171 -0.212,-0.095 -0.248,0.072 0.064,-0.226 0.042,-0.255 -0.02,-0.032 0.246,-0.758 0.165,-0.45 -0.075,0.31 0.058,0.395 0.058,0.395 0.055,0.027 0.173,-0.078 0.239,0.131 0.063,0.205 0.537,0.467 0.537,0.467 0,0 0.508,-0.331 0.436,-0.22 -0.079,0.104 0.158,0.07 0.158,0.07 0,0 0.567,0.023 0.576,-0.011 0.012,-0.04 -0.177,-0.302 -0.138,-0.249 0.045,0.061 0.287,0.234 0.352,0.353 0.061,0.108 -0.011,0.008 0.061,0.108 0.075,0.089 0.407,0.251 0.431,0.291 0.022,0.044 0.468,0.112 0.468,0.112 0,0 0.174,-0.34 0.28,-0.167 0.112,0.165 0.12,0.171 0.12,0.205 0,0.032 0.315,0.082 0.315,0.082 l 0.097,-0.272 0.004,-0.289 0.35,0.289 0.385,0.135 c 0,0 -0.26,-0.517 -0.441,-0.564 -0.182,-0.034 -0.182,-0.093 -0.408,-0.331 -0.223,-0.239 -0.312,-0.391 -0.312,-0.391 0,0 -0.229,-1.001 -0.405,-0.412 -0.176,0.578 -0.693,0.329 -0.703,0.304 -0.008,-0.036 -0.176,-0.562 -0.176,-0.562 l -0.301,-0.382 c 0,0 -0.035,-0.348 0.386,-0.112 0.412,0.232 0.387,0.416 0.57,0.211 0.187,-0.209 0.349,-0.942 0.58,-0.505 0.189,0.384 0.727,0.581 0.702,0.524 0.168,0.125 0.519,0.388 0.525,0.401 0.014,0.025 0.393,0.11 0.514,0.283 0.115,0.177 0.094,0.118 0.284,0.541 0.185,0.422 0.943,-0.245 0.571,-0.479 -0.374,-0.234 -1.257,-0.912 -1.353,-1.073 -0.093,-0.156 -0.089,-0.547 -0.089,-0.547 0,0 0.226,-0.186 0.29,-0.139 0.061,0.044 0.19,-0.272 0.19,-0.272 0,0 -0.217,-0.276 0.184,-0.099 0.406,0.175 0.968,0.216 1.008,0.051 0.046,-0.173 0.189,-0.378 0.348,-0.175 0.156,0.197 0.279,0.427 0.29,0.45 0.014,0.034 0.304,-0.019 0.304,-0.019 0,0 -0.031,-0.281 0.076,0.009 0.099,0.298 0.172,0.089 0.099,0.298 -0.06,0.203 0.685,0.296 0.685,0.296 0,0 0.099,-0.158 0.206,-0.158 0.109,0 0.024,-0.095 0.281,0.091 0.076,0.055 0.15,0.089 0.232,0.101 0.232,-0.692 0.886,-1.258 1.956,-1.258 0.095,0 0.178,0 0.268,0.01 0.146,-0.5 0.27,-1.026 0.255,-1.062 -0.018,-0.057 -0.018,-0.057 -0.018,-0.057 0,0 0.17,-0.536 0.772,-0.186 0.609,0.357 0.848,0.87 0.86,1.144 0,0 -0.13,0.697 -0.269,1.199 0.246,0.509 0.249,1.108 0.008,1.617 0.058,0.315 0.144,0.952 -0.081,1.286 -0.27,0.397 -0.082,0.023 -0.312,0.598 -0.234,0.583 -0.267,1.3 -0.291,1.347 -0.024,0.051 -0.697,0.777 -0.353,1.102 0.338,0.329 0.577,0.798 0.577,0.899 0,0.106 -0.201,1.381 0.502,1.457 0,0 -0.156,0.325 0.015,0.587 0.168,0.264 0.448,0.361 0.448,0.361 0,0 -0.045,0.101 -0.115,0.38 -0.019,0.095 -1.129,0.804 -2.833,1.165 -0.334,0.07 -0.682,0.133 -1.041,0.201 h -22.222 v -7.161 z" />
</g>
</svg>